<svg width="52" height="52" viewBox="0 0 52 52" fill="none" xmlns="http://www.w3.org/2000/svg">
<g clip-path="url(#clip0_353_3674)">
<path d="M25.9998 2.88892C21.4289 2.88892 16.9606 4.24436 13.1599 6.78384C9.35935 9.32332 6.39714 12.9328 4.64791 17.1558C2.89869 21.3788 2.44101 26.0257 3.33276 30.5088C4.2245 34.9919 6.42562 39.1099 9.65777 42.3421C12.8899 45.5742 17.0079 47.7753 21.491 48.6671C25.9742 49.5588 30.621 49.1011 34.844 47.3519C39.067 45.6027 42.6765 42.6405 45.216 38.8399C47.7555 35.0393 49.1109 30.571 49.1109 26C49.1109 19.8706 46.676 13.9922 42.3418 9.658C38.0076 5.32383 32.1292 2.88892 25.9998 2.88892ZM25.9998 46.2223C22.0002 46.2223 18.0905 45.0362 14.7649 42.8142C11.4394 40.5921 8.84747 37.4339 7.3169 33.7387C5.78632 30.0436 5.38586 25.9776 6.16614 22.0549C6.94641 18.1321 8.87239 14.5289 11.7005 11.7008C14.5287 8.87263 18.1319 6.94665 22.0546 6.16637C25.9774 5.38609 30.0434 5.78656 33.7385 7.31713C37.4336 8.8477 40.5919 11.4396 42.814 14.7652C45.036 18.0907 46.222 22.0005 46.222 26C46.222 31.3633 44.0915 36.5069 40.2991 40.2993C36.5067 44.0917 31.3631 46.2223 25.9998 46.2223Z" fill="#492D7A"/>
<path d="M40.4436 17.4777C40.173 17.2086 39.8069 17.0576 39.4253 17.0576C39.0437 17.0576 38.6776 17.2086 38.4069 17.4777L22.3736 33.4388L13.7069 24.7721C13.4426 24.4867 13.0757 24.318 12.687 24.3031C12.2983 24.2882 11.9196 24.4283 11.6341 24.6927C11.3487 24.957 11.18 25.3239 11.1651 25.7126C11.1502 26.1013 11.2904 26.48 11.5547 26.7654L22.3736 37.5554L40.4436 19.5288C40.579 19.3945 40.6864 19.2347 40.7598 19.0587C40.8331 18.8827 40.8709 18.6939 40.8709 18.5032C40.8709 18.3125 40.8331 18.1237 40.7598 17.9477C40.6864 17.7717 40.579 17.6119 40.4436 17.4777Z" fill="#492D7A"/>
</g>
<defs>
<clipPath id="clip0_353_3674">
<rect width="52" height="52" fill="white"/>
</clipPath>
</defs>
</svg>
