<svg width="149" height="53" viewBox="0 0 149 53" fill="none" xmlns="http://www.w3.org/2000/svg">
<path fill-rule="evenodd" clip-rule="evenodd" d="M59 28.0186C59 27.7424 59.3004 27.5186 59.671 27.5186H148.329C148.7 27.5186 149 27.7424 149 28.0186C149 28.2947 148.7 28.5186 148.329 28.5186H59.671C59.3004 28.5186 59 28.2947 59 28.0186Z" fill="#FAFAFA"/>
<path d="M133.597 20.5049C132.582 20.5049 131.767 20.2137 131.151 19.6311C130.552 19.0486 130.252 18.3495 130.252 17.534C130.252 16.6852 130.468 16.0194 130.901 15.5367C131.35 15.054 131.933 14.6962 132.649 14.4632C133.381 14.2302 134.172 14.0721 135.02 13.9888C135.886 13.9056 136.726 13.839 137.542 13.7891V11.8168C137.542 11.0345 137.342 10.427 136.943 9.99428C136.56 9.5449 135.903 9.3202 134.971 9.3202C134.504 9.3202 134.063 9.47 133.647 9.76959C133.248 10.0692 133.048 10.5019 133.048 11.0678C133.048 11.3341 133.115 11.5588 133.248 11.7419C133.381 11.925 133.514 12.0665 133.647 12.1663C133.78 12.2662 133.847 12.3328 133.847 12.366C133.847 12.4326 133.747 12.5575 133.547 12.7405C133.364 12.907 133.106 12.9902 132.774 12.9902C132.258 12.9902 131.858 12.7988 131.575 12.416C131.292 12.0332 131.151 11.6087 131.151 11.1427C131.151 10.5102 131.342 10.0109 131.725 9.64476C132.124 9.27859 132.632 9.01229 133.248 8.84585C133.864 8.67941 134.488 8.59619 135.12 8.59619C135.869 8.59619 136.593 8.68773 137.292 8.87082C138.008 9.0539 138.591 9.40342 139.04 9.91938C139.506 10.4353 139.739 11.2093 139.739 12.2412V18.0583C139.756 18.2247 139.797 18.4244 139.864 18.6575C139.93 18.8905 140.055 19.0985 140.238 19.2816C140.438 19.448 140.704 19.5313 141.037 19.5313C141.154 19.5313 141.245 19.5562 141.312 19.6062C141.378 19.6395 141.412 19.7476 141.412 19.9307C141.412 20.0805 141.329 20.197 141.162 20.2802C140.996 20.3635 140.804 20.4217 140.588 20.455C140.371 20.4883 140.188 20.5049 140.039 20.5049C139.423 20.5049 138.874 20.3302 138.391 19.9807C137.908 19.6145 137.625 19.1152 137.542 18.4827C137.176 19.1485 136.627 19.6561 135.894 20.0056C135.179 20.3385 134.413 20.5049 133.597 20.5049ZM134.396 19.1568C134.962 19.1568 135.478 19.0153 135.944 18.7324C136.427 18.4494 136.81 18.0666 137.093 17.5839C137.392 17.0846 137.542 16.5354 137.542 15.9362V14.5131C135.828 14.6296 134.604 14.9042 133.872 15.337C133.14 15.7697 132.774 16.4771 132.774 17.4591C132.774 18.5909 133.314 19.1568 134.396 19.1568Z" fill="#FAFAFA"/>
<path d="M115.681 20.2802C115.564 20.2802 115.464 20.2303 115.381 20.1304C115.315 20.0139 115.281 19.8974 115.281 19.7809C115.315 19.5312 115.381 19.3981 115.481 19.3814C115.581 19.3481 115.714 19.3315 115.88 19.3315C116.346 19.3315 116.663 19.2566 116.829 19.1068C116.996 18.9403 117.087 18.724 117.104 18.4577C117.137 18.1914 117.154 17.9167 117.154 17.6338V11.9166C117.154 11.617 117.137 11.3424 117.104 11.0927C117.087 10.8264 116.996 10.6184 116.829 10.4686C116.663 10.3021 116.346 10.2189 115.88 10.2189C115.731 10.2189 115.589 10.2023 115.456 10.169C115.34 10.1191 115.281 9.96926 115.281 9.7196C115.281 9.46994 115.414 9.32014 115.681 9.27021C116.446 9.1537 117.029 9.0372 117.428 8.92069C117.844 8.80418 118.152 8.70432 118.352 8.6211C118.568 8.53788 118.76 8.48795 118.926 8.4713C119.059 8.45466 119.168 8.47962 119.251 8.5462C119.351 8.61278 119.401 8.74593 119.401 8.94565V10.5185H119.476C119.808 10.2023 120.15 9.90268 120.499 9.61973C120.849 9.32014 121.256 9.07881 121.722 8.89572C122.205 8.696 122.796 8.59613 123.495 8.59613C124.627 8.59613 125.526 8.93733 126.191 9.61973C126.857 10.3021 127.19 11.2009 127.19 12.3161V17.6338C127.19 17.9167 127.198 18.1914 127.215 18.4577C127.248 18.724 127.348 18.9403 127.515 19.1068C127.698 19.2566 128.022 19.3315 128.488 19.3315C128.638 19.3315 128.763 19.3481 128.863 19.3814C128.979 19.3981 129.046 19.5312 129.062 19.7809C129.062 19.8974 129.029 20.0139 128.963 20.1304C128.896 20.2303 128.796 20.2802 128.663 20.2802C128.18 20.2469 127.731 20.2219 127.315 20.2053C126.915 20.2053 126.491 20.2053 126.042 20.2053C125.592 20.2053 125.168 20.2053 124.768 20.2053C124.369 20.2219 123.928 20.2469 123.445 20.2802C123.329 20.2802 123.229 20.2303 123.146 20.1304C123.079 20.0139 123.046 19.8974 123.046 19.7809C123.062 19.5312 123.121 19.3981 123.22 19.3814C123.337 19.3481 123.47 19.3315 123.62 19.3315C124.086 19.3315 124.402 19.2566 124.569 19.1068C124.752 18.9403 124.852 18.724 124.868 18.4577C124.901 18.1914 124.918 17.9167 124.918 17.6338V12.341C124.918 11.7918 124.793 11.3424 124.544 10.9929C124.311 10.6433 124.011 10.3854 123.645 10.2189C123.279 10.0525 122.904 9.96926 122.521 9.96926C121.955 9.96926 121.456 10.0774 121.023 10.2938C120.591 10.4935 120.241 10.7266 119.975 10.9929C119.709 11.2592 119.525 11.4922 119.426 11.6919V17.6338C119.426 17.9167 119.434 18.1914 119.451 18.4577C119.484 18.724 119.584 18.9403 119.75 19.1068C119.933 19.2566 120.258 19.3315 120.724 19.3315C120.874 19.3315 120.998 19.3481 121.098 19.3814C121.215 19.3981 121.281 19.5312 121.298 19.7809C121.298 19.8974 121.265 20.0139 121.198 20.1304C121.132 20.2303 121.032 20.2802 120.899 20.2802C120.416 20.2469 119.967 20.2219 119.55 20.2053C119.151 20.2053 118.727 20.2053 118.277 20.2053C117.828 20.2053 117.403 20.2053 117.004 20.2053C116.604 20.2219 116.163 20.2469 115.681 20.2802Z" fill="#FAFAFA"/>
<path d="M108.791 20.5049C107.51 20.5049 106.428 20.2303 105.546 19.6811C104.68 19.1318 104.031 18.3995 103.598 17.4841C103.166 16.5686 102.949 15.57 102.949 14.4882C102.949 13.7558 103.074 13.0484 103.324 12.366C103.59 11.667 103.965 11.0345 104.447 10.4686C104.93 9.8861 105.512 9.42839 106.195 9.09551C106.877 8.76263 107.651 8.59619 108.517 8.59619C110.048 8.59619 111.196 8.99565 111.962 9.79456C112.744 10.5768 113.194 11.5755 113.31 12.7905C113.31 13.373 113.144 13.7558 112.811 13.9389C112.495 14.122 112.078 14.2135 111.562 14.2135H105.496C105.496 15.1789 105.629 16.0444 105.895 16.81C106.162 17.559 106.578 18.1581 107.143 18.6075C107.726 19.0403 108.492 19.2566 109.44 19.2566C110.139 19.2566 110.739 19.1068 111.238 18.8073C111.737 18.5077 112.22 17.9834 112.686 17.2344C112.819 17.068 113.002 17.0596 113.235 17.2094C113.368 17.276 113.452 17.3842 113.485 17.534C113.518 17.6671 113.501 17.7837 113.435 17.8835C112.919 18.6991 112.27 19.3399 111.488 19.8059C110.705 20.2719 109.807 20.5049 108.791 20.5049ZM105.496 13.2648H109.565C109.965 13.2648 110.281 13.1899 110.514 13.0401C110.764 12.8737 110.897 12.5991 110.913 12.2163C110.913 11.5006 110.714 10.8681 110.314 10.3188C109.931 9.75295 109.332 9.47 108.517 9.47C107.684 9.47 106.985 9.80288 106.419 10.4686C105.87 11.1344 105.562 12.0665 105.496 13.2648Z" fill="#FAFAFA"/>
<path d="M95.9268 20.2801C95.8103 20.2801 95.7104 20.2301 95.6272 20.1303C95.5606 20.0137 95.5273 19.8972 95.5273 19.7807C95.544 19.5311 95.6022 19.3979 95.7021 19.3813C95.8186 19.348 95.9518 19.3313 96.1016 19.3313C96.5676 19.3313 96.8838 19.2564 97.0503 19.1067C97.2333 18.9402 97.3332 18.7238 97.3499 18.4575C97.3831 18.1912 97.3998 17.9166 97.3998 17.6337V5.45029C97.3998 5.1507 97.3831 4.87607 97.3499 4.62642C97.3332 4.36011 97.2417 4.15206 97.0752 4.00227C96.9088 3.83583 96.5926 3.75261 96.1265 3.75261C95.9767 3.75261 95.8353 3.73596 95.7021 3.70268C95.5856 3.65274 95.5273 3.50295 95.5273 3.25329C95.5273 3.00363 95.6605 2.85383 95.9268 2.8039C96.6924 2.68739 97.275 2.57089 97.6744 2.45438C98.0905 2.33787 98.4067 2.23801 98.6231 2.15479C98.8395 2.07157 99.0309 2.02164 99.1973 2.00499C99.3305 1.98835 99.4387 2.01332 99.5219 2.07989C99.6218 2.14647 99.6717 2.27962 99.6717 2.47935V17.6337C99.6717 17.9166 99.68 18.1912 99.6967 18.4575C99.7299 18.7238 99.8298 18.9402 99.9962 19.1067C100.179 19.2564 100.504 19.3313 100.97 19.3313C101.12 19.3313 101.245 19.348 101.344 19.3813C101.461 19.3979 101.527 19.5311 101.544 19.7807C101.544 19.8972 101.511 20.0137 101.444 20.1303C101.378 20.2301 101.278 20.2801 101.145 20.2801C100.662 20.2468 100.213 20.2218 99.7965 20.2052C99.3971 20.2052 98.9726 20.2052 98.5233 20.2052C98.0739 20.2052 97.6494 20.2052 97.25 20.2052C96.8505 20.2218 96.4095 20.2468 95.9268 20.2801Z" fill="#FAFAFA"/>
<path d="M89.7268 20.5049C88.4452 20.5049 87.3634 20.2303 86.4812 19.6811C85.6157 19.1318 84.9666 18.3995 84.5339 17.4841C84.1011 16.5686 83.8848 15.57 83.8848 14.4882C83.8848 13.7558 84.0096 13.0484 84.2593 12.366C84.5256 11.667 84.9 11.0345 85.3827 10.4686C85.8654 9.8861 86.4479 9.42839 87.1303 9.09551C87.8127 8.76263 88.5867 8.59619 89.4522 8.59619C90.9834 8.59619 92.1318 8.99565 92.8975 9.79456C93.6797 10.5768 94.1291 11.5755 94.2456 12.7905C94.2456 13.373 94.0792 13.7558 93.7463 13.9389C93.4301 14.122 93.014 14.2135 92.498 14.2135H86.4313C86.4313 15.1789 86.5644 16.0444 86.8307 16.81C87.097 17.559 87.5131 18.1581 88.079 18.6075C88.6616 19.0403 89.4272 19.2566 90.3759 19.2566C91.075 19.2566 91.6741 19.1068 92.1735 18.8073C92.6728 18.5077 93.1554 17.9834 93.6215 17.2344C93.7546 17.068 93.9377 17.0596 94.1707 17.2094C94.3039 17.276 94.3871 17.3842 94.4204 17.534C94.4537 17.6671 94.437 17.7837 94.3705 17.8835C93.8545 18.6991 93.2054 19.3399 92.4231 19.8059C91.6408 20.2719 90.7421 20.5049 89.7268 20.5049ZM86.4313 13.2648H90.5007C90.9002 13.2648 91.2164 13.1899 91.4494 13.0401C91.6991 12.8737 91.8323 12.5991 91.8489 12.2163C91.8489 11.5006 91.6492 10.8681 91.2497 10.3188C90.8669 9.75295 90.2677 9.47 89.4522 9.47C88.62 9.47 87.9209 9.80288 87.355 10.4686C86.8058 11.1344 86.4979 12.0665 86.4313 13.2648Z" fill="#FAFAFA"/>
<path d="M66.3908 20.2798C66.2244 20.2798 66.1078 20.2215 66.0413 20.105C65.9747 19.9885 65.9414 19.8637 65.9414 19.7305C65.9581 19.4476 66.0246 19.2894 66.1411 19.2562C66.2576 19.2229 66.3991 19.2062 66.5656 19.2062C67.0982 19.2062 67.4726 19.1147 67.689 18.9316C67.9054 18.7319 68.0385 18.4905 68.0885 18.2076C68.1551 17.908 68.1883 17.6001 68.1883 17.2838V7.37238C68.1883 7.05614 68.1551 6.75655 68.0885 6.4736C68.0385 6.17401 67.9054 5.93267 67.689 5.74959C67.4726 5.54986 67.0982 5.45 66.5656 5.45C66.3991 5.45 66.2576 5.43335 66.1411 5.40007C66.0246 5.36678 65.9581 5.20866 65.9414 4.92571C65.9414 4.79256 65.9747 4.66773 66.0413 4.55123C66.1078 4.43472 66.2244 4.37646 66.3908 4.37646C66.9234 4.39311 67.4227 4.40975 67.8887 4.4264C68.3548 4.44304 68.8375 4.45136 69.3368 4.45136C70.3521 4.45136 71.3923 4.4264 72.4575 4.37646C72.624 4.37646 72.7405 4.43472 72.807 4.55123C72.8736 4.66773 72.9069 4.79256 72.9069 4.92571C72.8903 5.20866 72.8237 5.36678 72.7072 5.40007C72.6073 5.43335 72.4658 5.45 72.2828 5.45C71.7668 5.45 71.3923 5.54986 71.1593 5.74959C70.9429 5.93267 70.8098 6.17401 70.7598 6.4736C70.7099 6.75655 70.6766 7.05614 70.66 7.37238V11.7913H78.4993V7.37238C78.4993 7.05614 78.466 6.75655 78.3994 6.4736C78.3495 6.17401 78.2163 5.93267 77.9999 5.74959C77.7836 5.54986 77.4091 5.45 76.8765 5.45C76.71 5.45 76.5602 5.43335 76.4271 5.40007C76.3106 5.36678 76.244 5.20866 76.2274 4.92571C76.2274 4.79256 76.2607 4.66773 76.3272 4.55123C76.4105 4.43472 76.527 4.37646 76.6768 4.37646C77.7586 4.4264 78.7989 4.45136 79.7975 4.45136C80.2968 4.45136 80.7795 4.44304 81.2455 4.4264C81.7282 4.40975 82.2358 4.39311 82.7684 4.37646C82.9182 4.37646 83.0264 4.43472 83.093 4.55123C83.1762 4.66773 83.2178 4.79256 83.2178 4.92571C83.2012 5.20866 83.1346 5.36678 83.0181 5.40007C82.9016 5.43335 82.7601 5.45 82.5937 5.45C82.0777 5.45 81.7032 5.54986 81.4702 5.74959C81.2372 5.93267 81.0957 6.17401 81.0458 6.4736C80.9959 6.75655 80.9626 7.05614 80.9459 7.37238V17.2838C80.9626 17.6001 80.9959 17.908 81.0458 18.2076C81.0957 18.4905 81.2372 18.7319 81.4702 18.9316C81.7032 19.1147 82.0777 19.2062 82.5937 19.2062C82.7601 19.2062 82.9016 19.2229 83.0181 19.2562C83.1346 19.2894 83.2012 19.4476 83.2178 19.7305C83.2178 19.8637 83.1762 19.9885 83.093 20.105C83.0264 20.2215 82.9182 20.2798 82.7684 20.2798C82.2358 20.2465 81.7282 20.2215 81.2455 20.2049C80.7628 20.2049 80.2718 20.2049 79.7725 20.2049C78.7905 20.2049 77.7586 20.2298 76.6768 20.2798C76.527 20.2798 76.4105 20.2215 76.3272 20.105C76.2607 19.9885 76.2274 19.8637 76.2274 19.7305C76.244 19.4476 76.3106 19.2894 76.4271 19.2562C76.5602 19.2229 76.71 19.2062 76.8765 19.2062C77.4091 19.2062 77.7836 19.1147 77.9999 18.9316C78.2163 18.7319 78.3495 18.4905 78.3994 18.2076C78.466 17.908 78.4993 17.6001 78.4993 17.2838V12.8649H70.66V17.2838C70.6766 17.6001 70.7099 17.908 70.7598 18.2076C70.8098 18.4905 70.9429 18.7319 71.1593 18.9316C71.3923 19.1147 71.7668 19.2062 72.2828 19.2062C72.4658 19.2062 72.6073 19.2229 72.7072 19.2562C72.8237 19.2894 72.8903 19.4476 72.9069 19.7305C72.9069 19.8637 72.8736 19.9885 72.807 20.105C72.7405 20.2215 72.624 20.2798 72.4575 20.2798C71.3923 20.2298 70.3604 20.2049 69.3617 20.2049C68.8624 20.2049 68.3714 20.2049 67.8887 20.2049C67.4227 20.2215 66.9234 20.2465 66.3908 20.2798Z" fill="#FAFAFA"/>
<path d="M142.301 47.2109C141.431 47.2109 140.732 46.9613 140.204 46.4619C139.69 45.9626 139.434 45.3634 139.434 44.6644C139.434 43.9368 139.619 43.3662 139.99 42.9524C140.375 42.5387 140.874 42.232 141.488 42.0323C142.116 41.8325 142.793 41.697 143.521 41.6257C144.263 41.5544 144.983 41.4973 145.682 41.4545V39.7639C145.682 39.0934 145.511 38.5727 145.169 38.2018C144.84 37.8166 144.277 37.624 143.478 37.624C143.079 37.624 142.701 37.7524 142.344 38.0092C142.002 38.266 141.83 38.6369 141.83 39.122C141.83 39.3502 141.887 39.5428 142.002 39.6997C142.116 39.8567 142.23 39.9779 142.344 40.0635C142.458 40.1491 142.515 40.2062 142.515 40.2347C142.515 40.2918 142.43 40.3988 142.258 40.5557C142.101 40.6984 141.88 40.7697 141.595 40.7697C141.153 40.7697 140.81 40.6056 140.568 40.2775C140.325 39.9494 140.204 39.5856 140.204 39.1862C140.204 38.644 140.368 38.216 140.696 37.9022C141.039 37.5883 141.474 37.3601 142.002 37.2174C142.529 37.0747 143.064 37.0034 143.606 37.0034C144.248 37.0034 144.869 37.0819 145.468 37.2388C146.082 37.3957 146.581 37.6953 146.966 38.1376C147.366 38.5798 147.565 39.2432 147.565 40.1277V45.1138C147.58 45.2564 147.615 45.4276 147.672 45.6274C147.729 45.8271 147.836 46.0054 147.993 46.1623C148.165 46.305 148.393 46.3763 148.678 46.3763C148.778 46.3763 148.856 46.3977 148.914 46.4405C148.971 46.4691 148.999 46.5618 148.999 46.7187C148.999 46.8471 148.928 46.947 148.785 47.0183C148.642 47.0897 148.478 47.1396 148.293 47.1681C148.107 47.1966 147.951 47.2109 147.822 47.2109C147.294 47.2109 146.824 47.0611 146.41 46.7615C145.996 46.4477 145.754 46.0197 145.682 45.4776C145.368 46.0482 144.898 46.4833 144.27 46.7829C143.656 47.0683 143 47.2109 142.301 47.2109ZM142.986 46.0554C143.471 46.0554 143.913 45.9341 144.313 45.6916C144.726 45.449 145.054 45.1209 145.297 44.7072C145.554 44.2792 145.682 43.8084 145.682 43.2948V42.0751C144.213 42.1749 143.164 42.4103 142.536 42.7812C141.909 43.1522 141.595 43.7585 141.595 44.6002C141.595 45.5703 142.059 46.0554 142.986 46.0554Z" fill="#FAFAFA"/>
<path d="M132.835 47.168C132.478 46.3834 132.121 45.5274 131.765 44.6001C131.408 43.6728 131.059 42.7669 130.716 41.8824C130.374 40.9979 130.046 40.2275 129.732 39.5713C129.504 39.0434 129.282 38.6725 129.068 38.4585C128.854 38.2302 128.533 38.0876 128.105 38.0305C127.92 38.002 127.792 37.9734 127.72 37.9449C127.663 37.9164 127.628 37.8094 127.613 37.6239C127.599 37.3814 127.663 37.253 127.806 37.2387C127.963 37.2102 128.148 37.1888 128.362 37.1745C129.247 37.1317 129.939 37.2601 130.438 37.5597C130.937 37.8593 131.344 38.3658 131.658 39.0791C131.857 39.5213 132.079 40.0706 132.321 40.7268C132.578 41.3831 132.842 42.0465 133.113 42.717C133.384 43.3875 133.648 43.9938 133.905 44.5359H133.969L136.087 38.9293C136.23 38.5156 136.237 38.2588 136.109 38.1589C135.98 38.059 135.702 38.0091 135.274 38.0091C135.146 38.0091 135.039 38.002 134.953 37.9877C134.868 37.9592 134.818 37.8379 134.803 37.6239C134.803 37.5383 134.825 37.4456 134.868 37.3457C134.925 37.2459 135.003 37.1959 135.103 37.1959C135.517 37.2102 135.873 37.2245 136.173 37.2387C136.473 37.253 136.808 37.2601 137.179 37.2601C137.436 37.2601 137.642 37.2601 137.799 37.2601C137.956 37.2459 138.12 37.2387 138.292 37.2387C138.463 37.2245 138.684 37.2102 138.955 37.1959C139.069 37.1959 139.148 37.2459 139.19 37.3457C139.247 37.4456 139.276 37.5383 139.276 37.6239C139.262 37.8379 139.205 37.9592 139.105 37.9877C139.019 38.002 138.919 38.0091 138.805 38.0091C138.334 38.0091 137.956 38.0947 137.671 38.2659C137.4 38.4371 137.165 38.7723 136.965 39.2717C136.965 39.2717 136.886 39.4643 136.729 39.8494C136.587 40.2204 136.394 40.7054 136.152 41.3046C135.909 41.9038 135.652 42.5386 135.381 43.2091C135.11 43.8797 134.846 44.5145 134.589 45.1137C134.347 45.7129 134.147 46.2051 133.99 46.5902C133.833 46.9754 133.748 47.168 133.733 47.168H132.835Z" fill="#FAFAFA"/>
<path d="M123.15 47.2109C122.052 47.2109 121.124 46.9755 120.368 46.5047C119.626 46.034 119.07 45.4062 118.699 44.6216C118.328 43.8369 118.143 42.981 118.143 42.0537C118.143 41.426 118.25 40.8196 118.464 40.2347C118.692 39.6355 119.013 39.0934 119.427 38.6084C119.84 38.1091 120.34 37.7167 120.924 37.4314C121.509 37.1461 122.173 37.0034 122.915 37.0034C124.227 37.0034 125.212 37.3458 125.868 38.0306C126.538 38.7011 126.923 39.5571 127.023 40.5985C127.023 41.0978 126.881 41.426 126.595 41.5829C126.324 41.7398 125.968 41.8183 125.525 41.8183H120.325C120.325 42.6457 120.439 43.3876 120.668 44.0438C120.896 44.6858 121.253 45.1994 121.738 45.5846C122.237 45.9555 122.893 46.1409 123.706 46.1409C124.306 46.1409 124.819 46.0126 125.247 45.7558C125.675 45.499 126.089 45.0496 126.488 44.4076C126.602 44.2649 126.759 44.2578 126.959 44.3862C127.073 44.4433 127.145 44.536 127.173 44.6644C127.202 44.7785 127.187 44.8784 127.13 44.964C126.688 45.663 126.132 46.2123 125.461 46.6117C124.791 47.0112 124.02 47.2109 123.15 47.2109ZM120.325 41.0051H123.813C124.156 41.0051 124.427 40.9409 124.627 40.8125C124.841 40.6698 124.955 40.4344 124.969 40.1063C124.969 39.4929 124.798 38.9508 124.455 38.48C124.127 37.9949 123.614 37.7524 122.915 37.7524C122.201 37.7524 121.602 38.0377 121.117 38.6084C120.646 39.179 120.382 39.9779 120.325 41.0051Z" fill="#FAFAFA"/>
<path d="M109.307 47.0183C109.207 47.0183 109.122 46.9755 109.05 46.8899C108.993 46.79 108.965 46.6901 108.965 46.5903C108.993 46.3763 109.05 46.2622 109.136 46.2479C109.222 46.2194 109.336 46.2051 109.478 46.2051C109.878 46.2051 110.149 46.1409 110.292 46.0125C110.434 45.8698 110.513 45.6844 110.527 45.4561C110.556 45.2279 110.57 44.9925 110.57 44.7499V39.8495C110.57 39.5927 110.556 39.3573 110.527 39.1433C110.513 38.915 110.434 38.7367 110.292 38.6083C110.149 38.4657 109.878 38.3943 109.478 38.3943C109.35 38.3943 109.229 38.3801 109.115 38.3515C109.015 38.3087 108.965 38.1803 108.965 37.9663C108.965 37.7523 109.079 37.6239 109.307 37.5811C109.963 37.4813 110.463 37.3814 110.805 37.2816C111.162 37.1817 111.426 37.0961 111.597 37.0248C111.782 36.9534 111.946 36.9106 112.089 36.8964C112.203 36.8821 112.296 36.9035 112.367 36.9606C112.453 37.0176 112.496 37.1318 112.496 37.303V38.6297H112.56C113.045 38.1589 113.544 37.7737 114.058 37.4742C114.571 37.1603 115.042 37.0034 115.47 37.0034C115.97 37.0034 116.348 37.1888 116.604 37.5598C116.875 37.9307 117.011 38.323 117.011 38.7367C117.011 39.0934 116.897 39.4429 116.669 39.7853C116.44 40.1134 116.098 40.2775 115.641 40.2775C115.413 40.2775 115.228 40.2347 115.085 40.1491C114.957 40.0492 114.885 39.9779 114.871 39.9351C114.871 39.9065 114.935 39.8209 115.064 39.6783C115.206 39.5356 115.278 39.3573 115.278 39.1433C115.278 38.8865 115.206 38.6797 115.064 38.5227C114.935 38.3658 114.757 38.2873 114.529 38.2873C114.286 38.2873 113.972 38.4086 113.587 38.6511C113.216 38.8936 112.86 39.1861 112.517 39.5285V44.7499C112.517 44.9925 112.524 45.2279 112.539 45.4561C112.567 45.6844 112.653 45.8698 112.795 46.0125C112.952 46.1409 113.23 46.2051 113.63 46.2051C113.758 46.2051 113.865 46.2194 113.951 46.2479C114.051 46.2622 114.108 46.3763 114.122 46.5903C114.122 46.6901 114.094 46.79 114.036 46.8899C113.979 46.9755 113.894 47.0183 113.78 47.0183C113.366 46.9897 112.981 46.9683 112.624 46.9541C112.282 46.9541 111.918 46.9541 111.533 46.9541C111.148 46.9541 110.784 46.9541 110.441 46.9541C110.099 46.9683 109.721 46.9897 109.307 47.0183Z" fill="#FAFAFA"/>
<path d="M103.081 47.0183C102.981 47.0183 102.895 46.9755 102.824 46.8899C102.767 46.79 102.738 46.6902 102.738 46.5903C102.767 46.3763 102.824 46.2622 102.909 46.2479C102.995 46.2194 103.109 46.2051 103.252 46.2051C103.651 46.2051 103.922 46.1409 104.065 46.0125C104.208 45.8698 104.286 45.6844 104.3 45.4561C104.329 45.2279 104.343 44.9925 104.343 44.7499V39.8495C104.343 39.5927 104.329 39.3573 104.3 39.1433C104.286 38.9151 104.208 38.7367 104.065 38.6083C103.922 38.4657 103.651 38.3943 103.252 38.3943C103.123 38.3943 103.002 38.3801 102.888 38.3515C102.788 38.3087 102.738 38.1803 102.738 37.9663C102.738 37.7524 102.852 37.624 103.081 37.5812C103.737 37.4813 104.236 37.3814 104.579 37.2816C104.935 37.1817 105.206 37.0961 105.392 37.0248C105.577 36.9534 105.741 36.9106 105.884 36.8964C105.998 36.8821 106.091 36.9035 106.162 36.9606C106.248 37.0176 106.291 37.1318 106.291 37.303V44.7499C106.291 44.9925 106.298 45.2279 106.312 45.4561C106.341 45.6844 106.426 45.8698 106.569 46.0125C106.726 46.1409 107.004 46.2051 107.403 46.2051C107.532 46.2051 107.639 46.2194 107.724 46.2479C107.824 46.2622 107.881 46.3763 107.896 46.5903C107.896 46.6902 107.867 46.79 107.81 46.8899C107.753 46.9755 107.667 47.0183 107.553 47.0183C107.139 46.9897 106.754 46.9683 106.398 46.9541C106.055 46.9541 105.691 46.9541 105.306 46.9541C104.921 46.9541 104.557 46.9541 104.215 46.9541C103.872 46.9683 103.494 46.9897 103.081 47.0183ZM105.199 34.521C104.8 34.521 104.464 34.3998 104.193 34.1573C103.922 33.9005 103.787 33.5866 103.787 33.2157C103.787 32.8876 103.951 32.5951 104.279 32.3383C104.607 32.0815 104.978 31.9531 105.392 31.9531C105.748 31.9531 106.041 32.0815 106.269 32.3383C106.497 32.5808 106.612 32.8947 106.612 33.2799C106.612 33.6223 106.476 33.9147 106.205 34.1573C105.934 34.3998 105.599 34.521 105.199 34.521Z" fill="#FAFAFA"/>
<path d="M95.9235 51.619C92.9133 51.619 91.4082 50.763 91.4082 49.0511C91.4082 48.5803 91.558 48.1595 91.8576 47.7885C92.1572 47.4319 92.5566 47.2535 93.056 47.2535C93.3841 47.2535 93.6551 47.3391 93.8691 47.5103C94.0831 47.6958 94.1901 47.8242 94.1901 47.8955C94.1901 47.9241 94.1331 47.9883 94.0189 48.0881C93.9191 48.188 93.8121 48.3235 93.6979 48.4947C93.5981 48.6659 93.5481 48.8942 93.5481 49.1795C93.5481 50.278 94.4897 50.8272 96.3729 50.8272C97.4428 50.8272 98.2703 50.6418 98.8552 50.2709C99.4544 49.8999 99.754 49.3364 99.754 48.5803C99.754 48.1666 99.6184 47.8527 99.3474 47.6387C99.0906 47.4247 98.7411 47.2749 98.2988 47.1893C97.8708 47.1037 97.3929 47.0467 96.865 47.0182C96.3372 47.0039 95.8022 46.9896 95.2601 46.9754C94.7322 46.9611 94.2401 46.9183 93.7835 46.847C93.2842 46.7614 92.8634 46.5973 92.521 46.3548C92.1928 46.098 92.0288 45.6843 92.0288 45.1136C92.0288 44.5858 92.2142 44.1292 92.5852 43.744C92.9704 43.3446 93.541 43.1449 94.2971 43.1449C93.3841 42.7882 92.7706 42.3531 92.4568 41.8395C92.1572 41.3259 92.0074 40.7981 92.0074 40.256C92.0074 39.6425 92.1786 39.0933 92.521 38.6082C92.8776 38.1089 93.3627 37.7166 93.9761 37.4312C94.6038 37.1316 95.3243 36.9818 96.1375 36.9818C96.5369 36.9818 96.9506 37.0175 97.3786 37.0888C97.8209 37.1459 98.1989 37.2529 98.5128 37.4098L101.445 36.8535C101.601 36.8392 101.708 36.8891 101.765 37.0032C101.823 37.1174 101.851 37.2386 101.851 37.367C101.851 37.5525 101.823 37.738 101.765 37.9234C101.708 38.0946 101.63 38.1802 101.53 38.1802L99.4116 38.0946V38.1374C99.6541 38.3799 99.861 38.7009 100.032 39.1004C100.203 39.4998 100.289 39.8779 100.289 40.2346C100.289 40.9193 100.089 41.5114 99.6898 42.0107C99.3046 42.51 98.8053 42.8952 98.1918 43.1663C97.5926 43.4231 96.9649 43.5515 96.3087 43.5515H95.3671C94.6252 43.5515 94.0831 43.6228 93.7407 43.7654C93.4126 43.9081 93.2486 44.1435 93.2486 44.4716C93.2486 44.7284 93.3341 44.9281 93.5053 45.0708C93.6908 45.1992 94.0189 45.2777 94.4897 45.3062L97.4214 45.4132C98.9479 45.4703 100.032 45.7128 100.674 46.1408C101.33 46.5688 101.659 47.2036 101.659 48.0453C101.659 48.8014 101.416 49.4434 100.931 49.9713C100.46 50.5134 99.7896 50.92 98.9194 51.191C98.0634 51.4764 97.0648 51.619 95.9235 51.619ZM96.1375 42.9309C96.7937 42.9309 97.3287 42.7026 97.7424 42.2461C98.1561 41.7753 98.363 41.1048 98.363 40.2346C98.363 39.4356 98.149 38.8079 97.721 38.3514C97.3073 37.8806 96.7723 37.6452 96.1161 37.6452C95.4884 37.6452 94.9605 37.8735 94.5325 38.33C94.1188 38.7723 93.9119 39.3928 93.9119 40.1918C93.9119 41.062 94.1188 41.7396 94.5325 42.2247C94.9605 42.6955 95.4955 42.9309 96.1375 42.9309Z" fill="#FAFAFA"/>
<path d="M85.9742 47.2109C84.8757 47.2109 83.9484 46.9755 83.1923 46.5047C82.4505 46.034 81.8941 45.4062 81.5232 44.6216C81.1523 43.8369 80.9668 42.981 80.9668 42.0537C80.9668 41.426 81.0738 40.8196 81.2878 40.2347C81.516 39.6355 81.837 39.0934 82.2508 38.6084C82.6645 38.1091 83.1638 37.7167 83.7487 37.4314C84.3336 37.1461 84.997 37.0034 85.7389 37.0034C87.0513 37.0034 88.0357 37.3458 88.692 38.0306C89.3625 38.7011 89.7477 39.5571 89.8475 40.5985C89.8475 41.0978 89.7049 41.426 89.4195 41.5829C89.1485 41.7398 88.7918 41.8183 88.3496 41.8183H83.1495C83.1495 42.6457 83.2637 43.3876 83.4919 44.0438C83.7202 44.6858 84.0768 45.1994 84.5619 45.5846C85.0612 45.9555 85.7175 46.1409 86.5306 46.1409C87.1298 46.1409 87.6434 46.0126 88.0714 45.7558C88.4994 45.499 88.9131 45.0496 89.3126 44.4076C89.4267 44.2649 89.5836 44.2578 89.7833 44.3862C89.8975 44.4433 89.9688 44.536 89.9973 44.6644C90.0259 44.7785 90.0116 44.8784 89.9545 44.964C89.5123 45.663 88.9559 46.2123 88.2854 46.6117C87.6149 47.0112 86.8445 47.2109 85.9742 47.2109ZM83.1495 41.0051H86.6376C86.98 41.0051 87.2511 40.9409 87.4508 40.8125C87.6648 40.6698 87.7789 40.4344 87.7932 40.1063C87.7932 39.4929 87.622 38.9508 87.2796 38.48C86.9515 37.9949 86.4379 37.7524 85.7389 37.7524C85.0255 37.7524 84.4264 38.0377 83.9413 38.6084C83.4705 39.179 83.2066 39.9779 83.1495 41.0051Z" fill="#FAFAFA"/>
<path d="M68.4107 47.0183C68.3109 47.0183 68.2253 46.9755 68.154 46.8899C68.0969 46.79 68.0684 46.6901 68.0684 46.5903C68.0969 46.3763 68.154 46.2622 68.2396 46.2479C68.3252 46.2194 68.4393 46.2051 68.5819 46.2051C68.9814 46.2051 69.2525 46.1409 69.3951 46.0125C69.5378 45.8698 69.6162 45.6844 69.6305 45.4561C69.659 45.2279 69.6733 44.9925 69.6733 44.7499V39.8495C69.6733 39.5927 69.659 39.3573 69.6305 39.1433C69.6162 38.915 69.5378 38.7367 69.3951 38.6083C69.2525 38.4657 68.9814 38.3943 68.5819 38.3943C68.4535 38.3943 68.3323 38.3801 68.2182 38.3515C68.1183 38.3087 68.0684 38.1803 68.0684 37.9663C68.0684 37.7523 68.1825 37.6239 68.4107 37.5811C69.067 37.4813 69.5663 37.3814 69.9087 37.2816C70.2654 37.1817 70.5293 37.0961 70.7005 37.0248C70.8859 36.9534 71.05 36.9106 71.1927 36.8964C71.3068 36.8821 71.3995 36.9035 71.4709 36.9606C71.5565 37.0176 71.5993 37.1318 71.5993 37.303V38.6511H71.6635C71.9488 38.3801 72.2412 38.1233 72.5408 37.8807C72.8404 37.6239 73.1899 37.4171 73.5894 37.2602C74.0031 37.089 74.5096 37.0034 75.1088 37.0034C76.0789 37.0034 76.8492 37.2958 77.4199 37.8807C77.9905 38.4657 78.2759 39.236 78.2759 40.1919V44.7499C78.2759 44.9925 78.283 45.2279 78.2973 45.4561C78.3258 45.6844 78.4114 45.8698 78.554 46.0125C78.711 46.1409 78.9892 46.2051 79.3886 46.2051C79.517 46.2051 79.624 46.2194 79.7096 46.2479C79.8095 46.2622 79.8665 46.3763 79.8808 46.5903C79.8808 46.6901 79.8523 46.79 79.7952 46.8899C79.7381 46.9755 79.6525 47.0183 79.5384 47.0183C79.1247 46.9897 78.7395 46.9683 78.3829 46.9541C78.0405 46.9541 77.6767 46.9541 77.2915 46.9541C76.9063 46.9541 76.5425 46.9541 76.2001 46.9541C75.8577 46.9683 75.4797 46.9897 75.066 47.0183C74.9661 47.0183 74.8805 46.9755 74.8092 46.8899C74.7521 46.79 74.7236 46.6901 74.7236 46.5903C74.7378 46.3763 74.7878 46.2622 74.8734 46.2479C74.9732 46.2194 75.0874 46.2051 75.2157 46.2051C75.6152 46.2051 75.8863 46.1409 76.0289 46.0125C76.1859 45.8698 76.2715 45.6844 76.2857 45.4561C76.3142 45.2279 76.3285 44.9925 76.3285 44.7499V40.2133C76.3285 39.7425 76.2215 39.3573 76.0075 39.0577C75.8078 38.7581 75.551 38.537 75.2371 38.3943C74.9233 38.2517 74.6023 38.1803 74.2742 38.1803C73.7891 38.1803 73.3611 38.2731 72.9902 38.4585C72.6193 38.6297 72.3197 38.8294 72.0914 39.0577C71.8632 39.286 71.7063 39.4857 71.6207 39.6569V44.7499C71.6207 44.9925 71.6278 45.2279 71.6421 45.4561C71.6706 45.6844 71.7562 45.8698 71.8988 46.0125C72.0558 46.1409 72.334 46.2051 72.7334 46.2051C72.8618 46.2051 72.9688 46.2194 73.0544 46.2479C73.1543 46.2622 73.2113 46.3763 73.2256 46.5903C73.2256 46.6901 73.1971 46.79 73.14 46.8899C73.0829 46.9755 72.9973 47.0183 72.8832 47.0183C72.4695 46.9897 72.0843 46.9683 71.7277 46.9541C71.3853 46.9541 71.0215 46.9541 70.6363 46.9541C70.2511 46.9541 69.8873 46.9541 69.5449 46.9541C69.2025 46.9683 68.8245 46.9897 68.4107 47.0183Z" fill="#FAFAFA"/>
<path d="M61.6223 47.3822C60.1386 47.3822 58.9973 47.1254 58.1984 46.6118C57.3995 46.0839 57 45.3136 57 44.3007C57 43.7871 57.1712 43.3662 57.5136 43.0381C57.8702 42.6957 58.3268 42.5245 58.8831 42.5245C59.2541 42.5388 59.5109 42.6315 59.6535 42.8027C59.8105 42.9739 59.8889 43.1023 59.8889 43.1879C59.8889 43.2164 59.8247 43.2664 59.6963 43.3377C59.5679 43.3948 59.4395 43.5089 59.3111 43.6801C59.1827 43.837 59.1185 44.0867 59.1185 44.4291C59.1185 45.071 59.3183 45.5846 59.7177 45.9698C60.1172 46.3407 60.752 46.5262 61.6223 46.5262C62.2357 46.5262 62.7564 46.4121 63.1844 46.1838C63.6267 45.9413 63.9619 45.6346 64.1902 45.2636C64.4184 44.8784 64.5326 44.4861 64.5326 44.0867C64.5326 43.4875 64.3614 42.9953 64.019 42.6101C63.6766 42.2249 63.2272 41.8968 62.6708 41.6257C62.1287 41.3404 61.5509 41.0694 60.9375 40.8126C60.324 40.5558 59.7391 40.2633 59.1827 39.9352C58.6406 39.6071 58.1912 39.2005 57.8346 38.7154C57.4779 38.2161 57.2925 37.5955 57.2782 36.8537C57.2639 35.9549 57.4565 35.2273 57.856 34.6709C58.2554 34.1003 58.8118 33.6866 59.5251 33.4298C60.2384 33.1587 61.0302 33.0232 61.9005 33.0232C62.5424 33.0232 63.1702 33.1159 63.7836 33.3014C64.4113 33.4868 64.9249 33.7793 65.3244 34.1788C65.7381 34.5639 65.9449 35.0775 65.9449 35.7195C65.9449 36.2331 65.7666 36.6611 65.41 37.0035C65.0676 37.3316 64.6182 37.4957 64.0618 37.4957C63.6909 37.4671 63.4269 37.3744 63.27 37.2175C63.1274 37.0463 63.056 36.9179 63.056 36.8323C63.056 36.7895 63.1416 36.7395 63.3128 36.6825C63.484 36.6112 63.6552 36.497 63.8264 36.3401C63.9976 36.1689 64.0832 35.9192 64.0832 35.5911C64.0832 35.049 63.8763 34.6353 63.4626 34.35C63.0489 34.0504 62.5353 33.9006 61.9219 33.9006C60.9945 33.9006 60.3169 34.1217 59.8889 34.5639C59.4752 34.9919 59.2683 35.477 59.2683 36.0191C59.2683 36.547 59.411 36.9749 59.6963 37.3031C59.9816 37.6312 60.4096 37.9522 60.9803 38.266C61.6223 38.6084 62.2714 38.9294 62.9276 39.229C63.5839 39.5143 64.1902 39.8353 64.7466 40.192C65.3172 40.5486 65.7737 40.998 66.1161 41.5401C66.4585 42.068 66.6297 42.7528 66.6297 43.5945C66.6297 44.3221 66.4015 44.9712 65.9449 45.5418C65.5027 46.1125 64.9035 46.5619 64.1474 46.89C63.3913 47.2181 62.5496 47.3822 61.6223 47.3822Z" fill="#FAFAFA"/>
<path d="M9.81203 30.5011C12.5251 23.7862 19.0194 16.4456 21 14.298V12L20.4179 12.6C19.999 13.0318 12.3787 20.9534 8.81403 28.794C8.52153 29.4375 8.25746 30.0795 8.02589 30.7178C7.3892 32.4719 7 34.1913 7 35.7871C7 46.7841 19.2182 48.834 19.3415 48.8534L20.2736 49L18.637 47.1019C15.9438 46.4253 8.60416 43.8413 8.60416 35.7871C8.60416 34.6538 8.82587 33.4396 9.21112 32.1842C9.29375 31.9088 9.74492 30.7221 9.81203 30.5011Z" fill="#FAFAFA"/>
<path d="M1.74703 31.8948C1.74703 28.5535 2.36216 24.8333 5.03831 20.6433C5.24025 19.0445 5.63319 17.4783 6.29498 16C1.20112 21.6855 0 27.8126 0 31.895C0 46.452 12.8648 52.9999 22 53V51.3594C13.5904 51.3591 1.74703 45.3204 1.74703 31.8948Z" fill="#FAFAFA"/>
<path d="M21 2.06219V0L20.4793 0.420619C20.3323 0.539566 16.8357 3.37988 13.2829 7.4904C8.45022 13.0818 6 18.094 6 22.3876C6 23.284 6.03356 24.1811 6.12291 25.0736C6.20001 25.8442 6.31906 26.6118 6.5011 27.366C6.66236 28.0342 6.87383 28.6916 7.14894 29.3245C7.33524 29.7532 7.53632 30.1689 7.79239 30.5629C8.03089 30.9298 8.29535 31.2808 8.58325 31.613C9.19581 32.3198 9.91529 32.888 10.6687 33.4465C11.0552 33.733 11.4547 34.029 11.8209 34.3404C15.9877 37.8821 18.3198 42.2755 18.6084 47.0989L20.2647 49L20.2623 48.077C20.2484 42.4059 17.7003 37.2487 12.8934 33.1629C12.4863 32.8167 12.0646 32.5043 11.6568 32.202C11.2927 31.9321 10.9277 31.6625 10.5814 31.3712C10.4125 31.2291 10.2481 31.0819 10.0917 30.927C10.0145 30.8506 9.93913 30.7721 9.86629 30.6918C9.61048 30.4095 9.38437 30.1027 9.18222 29.7825C8.97555 29.4551 8.82215 29.1136 8.66688 28.7615C7.95192 27.1392 7.62354 25.1008 7.62354 22.3878C7.62341 14.0272 18.4721 4.23081 21 2.06219Z" fill="#FAFAFA"/>
<path d="M32.188 30.5011C29.4749 23.7862 22.9806 16.4456 21 14.298V12L21.5821 12.6C22.001 13.0318 29.6213 20.9534 33.186 28.794C33.4785 29.4375 33.7425 30.0795 33.9741 30.7178C34.6108 32.4719 35 34.1913 35 35.7871C35 46.7841 22.7818 48.834 22.6585 48.8534L21.7264 49L23.363 47.1019C26.0562 46.4253 33.3958 43.8413 33.3958 35.7871C33.3958 34.6538 33.1741 33.4396 32.7889 32.1842C32.7062 31.9088 32.2551 30.7221 32.188 30.5011Z" fill="#FAFAFA"/>
<path d="M41.253 31.8948C41.253 28.5535 40.6378 24.8333 37.9617 20.6433C37.7597 19.0445 37.3668 17.4783 36.705 16C41.7989 21.6855 43 27.8126 43 31.895C43 46.452 30.1352 52.9999 21 53V51.3594C29.4096 51.3591 41.253 45.3204 41.253 31.8948Z" fill="#FAFAFA"/>
<path d="M21 2.06219V0L21.5205 0.420619C21.6676 0.539566 25.1642 3.37988 28.7171 7.4904C33.5498 13.0818 36 18.094 36 22.3876C36 23.284 35.9664 24.1811 35.8771 25.0736C35.8 25.8442 35.6809 26.6118 35.4989 27.366C35.3376 28.0342 35.1262 28.6916 34.851 29.3245C34.6647 29.7532 34.4637 30.1689 34.2076 30.5629C33.9691 30.9298 33.7045 31.2809 33.4167 31.613C32.8042 32.3198 32.0847 32.888 31.3312 33.4465C30.9448 33.733 30.5453 34.029 30.1791 34.3404C26.0122 37.8821 23.6801 42.2755 23.3915 47.0989L21.7352 49L21.7376 48.077C21.7515 42.4059 24.2996 37.2487 29.1066 33.1629C29.5137 32.8167 29.9354 32.5043 30.3431 32.202C30.7072 31.9321 31.0722 31.6625 31.4186 31.3712C31.5874 31.2291 31.7519 31.0819 31.9082 30.927C31.9855 30.8506 32.0608 30.7721 32.1337 30.6918C32.3895 30.4095 32.6156 30.1027 32.8177 29.7825C33.0244 29.4551 33.178 29.1136 33.3331 28.7615C34.0481 27.1392 34.3764 25.1008 34.3764 22.3878C34.3767 14.0272 23.5279 4.23081 21 2.06219Z" fill="#FAFAFA"/>
</svg>
