<svg width="25" height="24" viewBox="0 0 25 24" fill="none" xmlns="http://www.w3.org/2000/svg">
<path d="M13 2C10.7465 2.00258 8.58602 2.8726 6.99253 4.41922C5.39905 5.96584 4.50267 8.06276 4.50001 10.25C4.49731 12.0374 5.09886 13.7763 6.21237 15.2C6.21237 15.2 6.44419 15.4963 6.48205 15.539L13 23L19.521 15.5353C19.555 15.4955 19.7876 15.2 19.7876 15.2L19.7884 15.1978C20.9014 13.7747 21.5026 12.0366 21.5 10.25C21.4973 8.06276 20.6009 5.96584 19.0075 4.41922C17.414 2.8726 15.2535 2.00258 13 2ZM13 13.25C12.3887 13.25 11.7911 13.0741 11.2828 12.7444C10.7745 12.4148 10.3783 11.9462 10.1444 11.3981C9.91043 10.8499 9.84922 10.2467 9.96849 9.66473C10.0877 9.08279 10.3821 8.54824 10.8144 8.12868C11.2467 7.70912 11.7974 7.4234 12.397 7.30764C12.9966 7.19189 13.618 7.2513 14.1828 7.47836C14.7476 7.70542 15.2304 8.08994 15.57 8.58329C15.9096 9.07664 16.0909 9.65666 16.0909 10.25C16.0899 11.0453 15.7639 11.8078 15.1845 12.3702C14.605 12.9326 13.8194 13.249 13 13.25Z" fill="#FAFAFA"/>
</svg>
