<svg width="64" height="44" viewBox="0 0 64 44" fill="none" xmlns="http://www.w3.org/2000/svg">
<rect x="0.5" y="0.5" width="63" height="43" rx="3.5" stroke="#FAFAFA"/>
<path d="M36.2176 11.9696L28.4146 19.7725C25.1495 23.0458 22.6769 27.023 21.1862 31.3994C21.1151 31.6064 21.1038 31.8292 21.1535 32.0423C21.2033 32.2555 21.3121 32.4503 21.4674 32.6044L21.4715 32.6085C21.5796 32.7175 21.7082 32.8039 21.8499 32.863C21.9916 32.9221 22.1435 32.9525 22.297 32.9527C22.4262 32.9526 22.5545 32.9313 22.6767 32.8897C27.0532 31.399 31.0303 28.9263 34.3036 25.6612L42.1063 17.8584C42.8872 17.0775 43.3259 16.0183 43.3259 14.914C43.3259 13.8096 42.8872 12.7505 42.1063 11.9696C41.7196 11.5829 41.2606 11.2762 40.7554 11.067C40.2502 10.8577 39.7087 10.75 39.1619 10.75C38.0576 10.75 36.9985 11.1887 36.2176 11.9696ZM33.2427 24.6006C30.2935 27.5421 26.7413 29.8089 22.8312 31.2447C24.267 27.3346 26.5338 23.7824 29.4752 20.8331L34.1235 16.185L37.8909 19.9524L33.2427 24.6006ZM41.0456 16.7977L38.9515 18.8918L35.1841 15.1243L37.2782 13.0302C37.5254 12.7823 37.8191 12.5855 38.1425 12.4511C38.4659 12.3168 38.8126 12.2475 39.1627 12.2472C39.5129 12.247 39.8597 12.3158 40.1832 12.4496C40.5068 12.5835 40.8008 12.7799 41.0484 13.0275C41.296 13.2751 41.4924 13.5691 41.6262 13.8927C41.7601 14.2162 41.8289 14.563 41.8287 14.9132C41.8284 15.2634 41.7591 15.61 41.6248 15.9334C41.4904 16.2568 41.2936 16.5505 41.0456 16.7977Z" fill="#FAFAFA"/>
</svg>
