<svg width="25" height="24" viewBox="0 0 25 24" fill="none" xmlns="http://www.w3.org/2000/svg">
<path d="M20.5022 11H22.5C22.5 5.86943 18.6313 2 13.5 2V4.00022C17.5575 4.00022 20.5022 6.94355 20.5022 11Z" fill="#FAFAFA"/>
<path d="M13.605 7.86477C15.7301 7.86477 16.6365 8.7711 16.6365 10.896H18.6574C18.6574 7.63743 16.8638 5.84397 13.605 5.84397V7.86477ZM17.0629 13.3644C16.8687 13.1879 16.6136 13.0938 16.3513 13.1019C16.089 13.11 15.8402 13.2197 15.6573 13.4078L13.2392 15.8944C12.6572 15.7833 11.4871 15.4185 10.2826 14.2172C9.0781 13.0118 8.71332 11.8387 8.6052 11.2607L11.09 8.84183C11.2783 8.65908 11.3882 8.41021 11.3963 8.1479C11.4044 7.88558 11.3101 7.6304 11.1334 7.43636L7.39971 3.3311C7.22292 3.13645 6.97721 3.01839 6.71476 3.00197C6.45231 2.98556 6.1938 3.07209 5.99414 3.2432L3.80141 5.12355C3.62671 5.29887 3.52243 5.53221 3.50837 5.7793C3.49321 6.0319 3.20422 12.0155 7.84432 16.6573C11.8923 20.704 16.9628 21 18.3593 21C18.5634 21 18.6887 20.9939 18.7221 20.9919C18.9691 20.9781 19.2024 20.8734 19.3769 20.6979L21.2563 18.5043C21.4276 18.3048 21.5143 18.0464 21.4981 17.7839C21.4818 17.5215 21.364 17.2758 21.1694 17.0988L17.0629 13.3644Z" fill="#FAFAFA"/>
</svg>
