<svg width="254" height="252" viewBox="0 0 254 252" fill="none" xmlns="http://www.w3.org/2000/svg">
<g clip-path="url(#clip0_448_3157)">
<path d="M249.5 0H4.5C2.29086 0 0.5 1.79086 0.5 4V248C0.5 250.209 2.29085 252 4.49999 252H249.5C251.709 252 253.5 250.209 253.5 248V4C253.5 1.79086 251.709 0 249.5 0Z" fill="white"/>
<path d="M23.0208 15.75H16.3125V22.4318H23.0208V15.75Z" fill="black"/>
<path d="M29.7292 15.75H23.0208V22.4318H29.7292V15.75Z" fill="black"/>
<path d="M36.4375 15.75H29.7292V22.4318H36.4375V15.75Z" fill="black"/>
<path d="M43.1458 15.75H36.4375V22.4318H43.1458V15.75Z" fill="black"/>
<path d="M49.8542 15.75H43.1458V22.4318H49.8542V15.75Z" fill="black"/>
<path d="M56.5625 15.75H49.8542V22.4318H56.5625V15.75Z" fill="black"/>
<path d="M63.2708 15.75H56.5625V22.4318H63.2708V15.75Z" fill="black"/>
<path d="M76.6875 15.75H69.9792V22.4318H76.6875V15.75Z" fill="black"/>
<path d="M83.3958 15.75H76.6875V22.4318H83.3958V15.75Z" fill="black"/>
<path d="M96.8125 15.75H90.1042V22.4318H96.8125V15.75Z" fill="black"/>
<path d="M103.521 15.75H96.8125V22.4318H103.521V15.75Z" fill="black"/>
<path d="M150.479 15.75H143.771V22.4318H150.479V15.75Z" fill="black"/>
<path d="M163.896 15.75H157.188V22.4318H163.896V15.75Z" fill="black"/>
<path d="M184.021 15.75H177.312V22.4318H184.021V15.75Z" fill="black"/>
<path d="M197.438 15.75H190.729V22.4318H197.438V15.75Z" fill="black"/>
<path d="M204.146 15.75H197.438V22.4318H204.146V15.75Z" fill="black"/>
<path d="M210.854 15.75H204.146V22.4318H210.854V15.75Z" fill="black"/>
<path d="M217.562 15.75H210.854V22.4318H217.562V15.75Z" fill="black"/>
<path d="M224.271 15.75H217.562V22.4318H224.271V15.75Z" fill="black"/>
<path d="M230.979 15.75H224.271V22.4318H230.979V15.75Z" fill="black"/>
<path d="M237.688 15.75H230.979V22.4318H237.688V15.75Z" fill="black"/>
<path d="M23.0208 22.4318H16.3125V29.1136H23.0208V22.4318Z" fill="black"/>
<path d="M63.2708 22.4318H56.5625V29.1136H63.2708V22.4318Z" fill="black"/>
<path d="M83.3958 22.4318H76.6875V29.1136H83.3958V22.4318Z" fill="black"/>
<path d="M116.938 22.4318H110.229V29.1136H116.938V22.4318Z" fill="black"/>
<path d="M143.771 22.4318H137.062V29.1136H143.771L143.771 22.4318Z" fill="black"/>
<path d="M150.479 22.4318H143.771L143.771 29.1136H150.479V22.4318Z" fill="black"/>
<path d="M157.188 22.4318H150.479V29.1136H157.188V22.4318Z" fill="black"/>
<path d="M163.896 22.4318H157.188V29.1136H163.896V22.4318Z" fill="black"/>
<path d="M184.021 22.4318H177.312V29.1136H184.021V22.4318Z" fill="black"/>
<path d="M197.438 22.4318H190.729V29.1136H197.438V22.4318Z" fill="black"/>
<path d="M237.688 22.4318H230.979V29.1136H237.688V22.4318Z" fill="black"/>
<path d="M23.0208 29.1136H16.3125V35.7955H23.0208V29.1136Z" fill="black"/>
<path d="M36.4375 29.1136H29.7292V35.7955H36.4375V29.1136Z" fill="black"/>
<path d="M43.1458 29.1136H36.4375V35.7955H43.1458V29.1136Z" fill="black"/>
<path d="M49.8542 29.1136H43.1458V35.7955H49.8542V29.1136Z" fill="black"/>
<path d="M63.2708 29.1136H56.5625V35.7955H63.2708V29.1136Z" fill="black"/>
<path d="M83.3958 29.1136H76.6875V35.7955H83.3958V29.1136Z" fill="black"/>
<path d="M96.8125 29.1136H90.1042V35.7955H96.8125V29.1136Z" fill="black"/>
<path d="M116.938 29.1136H110.229V35.7955H116.938V29.1136Z" fill="black"/>
<path d="M143.771 29.1136H137.062V35.7955H143.771V29.1136Z" fill="black"/>
<path d="M150.479 29.1136H143.771V35.7955H150.479V29.1136Z" fill="black"/>
<path d="M177.312 29.1136H170.604V35.7955H177.312V29.1136Z" fill="black"/>
<path d="M197.438 29.1136H190.729V35.7955H197.438V29.1136Z" fill="black"/>
<path d="M210.854 29.1136H204.146V35.7955H210.854V29.1136Z" fill="black"/>
<path d="M217.562 29.1136H210.854V35.7955H217.562V29.1136Z" fill="black"/>
<path d="M224.271 29.1136H217.562V35.7955H224.271V29.1136Z" fill="black"/>
<path d="M237.688 29.1136H230.979V35.7955H237.688V29.1136Z" fill="black"/>
<path d="M23.0208 35.7955H16.3125V42.4773H23.0208V35.7955Z" fill="black"/>
<path d="M36.4375 35.7955H29.7292V42.4773H36.4375V35.7955Z" fill="black"/>
<path d="M43.1458 35.7955H36.4375V42.4773H43.1458V35.7955Z" fill="black"/>
<path d="M49.8542 35.7955H43.1458V42.4773H49.8542V35.7955Z" fill="black"/>
<path d="M63.2708 35.7955H56.5625V42.4773H63.2708V35.7955Z" fill="black"/>
<path d="M96.8125 35.7955H90.1042V42.4773H96.8125V35.7955Z" fill="black"/>
<path d="M103.521 35.7955H96.8125V42.4773H103.521V35.7955Z" fill="black"/>
<path d="M110.229 35.7955H103.521V42.4773H110.229V35.7955Z" fill="black"/>
<path d="M137.062 35.7955H130.354V42.4773H137.062V35.7955Z" fill="black"/>
<path d="M143.771 35.7955H137.062V42.4773H143.771V35.7955Z" fill="black"/>
<path d="M150.479 35.7955H143.771V42.4773H150.479V35.7955Z" fill="black"/>
<path d="M157.188 35.7955H150.479V42.4773H157.188V35.7955Z" fill="black"/>
<path d="M170.604 35.7955H163.896V42.4773H170.604V35.7955Z" fill="black"/>
<path d="M184.021 35.7955H177.312V42.4773H184.021V35.7955Z" fill="black"/>
<path d="M197.438 35.7955H190.729V42.4773H197.438V35.7955Z" fill="black"/>
<path d="M210.854 35.7955H204.146V42.4773H210.854V35.7955Z" fill="black"/>
<path d="M217.562 35.7955H210.854V42.4773H217.562V35.7955Z" fill="black"/>
<path d="M224.271 35.7955H217.562V42.4773H224.271V35.7955Z" fill="black"/>
<path d="M237.688 35.7955H230.979V42.4773H237.688V35.7955Z" fill="black"/>
<path d="M23.0208 42.4773H16.3125V49.1591H23.0208V42.4773Z" fill="black"/>
<path d="M36.4375 42.4773H29.7292V49.1591H36.4375V42.4773Z" fill="black"/>
<path d="M43.1458 42.4773H36.4375V49.1591H43.1458V42.4773Z" fill="black"/>
<path d="M49.8542 42.4773H43.1458V49.1591H49.8542V42.4773Z" fill="black"/>
<path d="M63.2708 42.4773H56.5625V49.1591H63.2708V42.4773Z" fill="black"/>
<path d="M76.6875 42.4773H69.9792V49.1591H76.6875V42.4773Z" fill="black"/>
<path d="M83.3958 42.4773H76.6875V49.1591H83.3958V42.4773Z" fill="black"/>
<path d="M90.1042 42.4773H83.3958V49.1591H90.1042V42.4773Z" fill="black"/>
<path d="M103.521 42.4773H96.8125V49.1591H103.521V42.4773Z" fill="black"/>
<path d="M116.938 42.4773H110.229V49.1591H116.938V42.4773Z" fill="black"/>
<path d="M123.646 42.4773H116.938V49.1591H123.646V42.4773Z" fill="black"/>
<path d="M137.062 42.4773H130.354V49.1591H137.062V42.4773Z" fill="black"/>
<path d="M150.479 42.4773H143.771L143.771 49.1591H150.479V42.4773Z" fill="black"/>
<path d="M157.188 42.4773H150.479V49.1591H157.188V42.4773Z" fill="black"/>
<path d="M177.312 42.4773H170.604V49.1591H177.312V42.4773Z" fill="black"/>
<path d="M184.021 42.4773H177.312V49.1591H184.021V42.4773Z" fill="black"/>
<path d="M197.438 42.4773H190.729V49.1591H197.438V42.4773Z" fill="black"/>
<path d="M210.854 42.4773H204.146V49.1591H210.854V42.4773Z" fill="black"/>
<path d="M217.562 42.4773H210.854V49.1591H217.562V42.4773Z" fill="black"/>
<path d="M224.271 42.4773H217.562V49.1591H224.271V42.4773Z" fill="black"/>
<path d="M237.688 42.4773H230.979V49.1591H237.688V42.4773Z" fill="black"/>
<path d="M23.0208 49.1591H16.3125V55.8409H23.0208V49.1591Z" fill="black"/>
<path d="M63.2708 49.1591H56.5625V55.8409H63.2708V49.1591Z" fill="black"/>
<path d="M83.3958 49.1591H76.6875V55.8409H83.3958V49.1591Z" fill="black"/>
<path d="M110.229 49.1591H103.521V55.8409H110.229V49.1591Z" fill="black"/>
<path d="M130.354 49.1591H123.646V55.8409H130.354V49.1591Z" fill="black"/>
<path d="M157.188 49.1591H150.479V55.8409H157.188V49.1591Z" fill="black"/>
<path d="M163.896 49.1591H157.188V55.8409H163.896V49.1591Z" fill="black"/>
<path d="M170.604 49.1591H163.896V55.8409H170.604V49.1591Z" fill="black"/>
<path d="M177.312 49.1591H170.604V55.8409H177.312V49.1591Z" fill="black"/>
<path d="M184.021 49.1591H177.312V55.8409H184.021V49.1591Z" fill="black"/>
<path d="M197.438 49.1591H190.729V55.8409H197.438V49.1591Z" fill="black"/>
<path d="M237.688 49.1591H230.979V55.8409H237.688V49.1591Z" fill="black"/>
<path d="M23.0208 55.8409H16.3125V62.5227H23.0208V55.8409Z" fill="black"/>
<path d="M29.7292 55.8409H23.0208V62.5227H29.7292V55.8409Z" fill="black"/>
<path d="M36.4375 55.8409H29.7292V62.5227H36.4375V55.8409Z" fill="black"/>
<path d="M43.1458 55.8409H36.4375V62.5227H43.1458V55.8409Z" fill="black"/>
<path d="M49.8542 55.8409H43.1458V62.5227H49.8542V55.8409Z" fill="black"/>
<path d="M56.5625 55.8409H49.8542V62.5227H56.5625V55.8409Z" fill="black"/>
<path d="M63.2708 55.8409H56.5625V62.5227H63.2708V55.8409Z" fill="black"/>
<path d="M76.6875 55.8409H69.9792V62.5227H76.6875V55.8409Z" fill="black"/>
<path d="M90.1042 55.8409H83.3958V62.5227H90.1042V55.8409Z" fill="black"/>
<path d="M103.521 55.8409H96.8125V62.5227H103.521V55.8409Z" fill="black"/>
<path d="M116.938 55.8409H110.229V62.5227H116.938V55.8409Z" fill="black"/>
<path d="M130.354 55.8409H123.646V62.5227H130.354V55.8409Z" fill="black"/>
<path d="M143.771 55.8409H137.062V62.5227H143.771V55.8409Z" fill="black"/>
<path d="M157.188 55.8409H150.479V62.5227H157.188V55.8409Z" fill="black"/>
<path d="M170.604 55.8409H163.896V62.5227H170.604V55.8409Z" fill="black"/>
<path d="M184.021 55.8409H177.312V62.5227H184.021V55.8409Z" fill="black"/>
<path d="M197.438 55.8409H190.729V62.5227H197.438V55.8409Z" fill="black"/>
<path d="M204.146 55.8409H197.438V62.5227H204.146V55.8409Z" fill="black"/>
<path d="M210.854 55.8409H204.146V62.5227H210.854V55.8409Z" fill="black"/>
<path d="M217.562 55.8409H210.854V62.5227H217.562V55.8409Z" fill="black"/>
<path d="M224.271 55.8409H217.562V62.5227H224.271V55.8409Z" fill="black"/>
<path d="M230.979 55.8409H224.271V62.5227H230.979V55.8409Z" fill="black"/>
<path d="M237.688 55.8409H230.979V62.5227H237.688V55.8409Z" fill="black"/>
<path d="M76.6875 62.5227H69.9792V69.2045H76.6875V62.5227Z" fill="black"/>
<path d="M83.3958 62.5227H76.6875V69.2045H83.3958V62.5227Z" fill="black"/>
<path d="M90.1042 62.5227H83.3958V69.2045H90.1042V62.5227Z" fill="black"/>
<path d="M110.229 62.5227H103.521V69.2045H110.229V62.5227Z" fill="black"/>
<path d="M123.646 62.5227H116.938V69.2045H123.646V62.5227Z" fill="black"/>
<path d="M137.062 62.5227H130.354V69.2045H137.062V62.5227Z" fill="black"/>
<path d="M143.771 62.5227H137.062V69.2045H143.771V62.5227Z" fill="black"/>
<path d="M157.188 62.5227H150.479V69.2045H157.188V62.5227Z" fill="black"/>
<path d="M163.896 62.5227H157.188V69.2045H163.896V62.5227Z" fill="black"/>
<path d="M170.604 62.5227H163.896V69.2045H170.604V62.5227Z" fill="black"/>
<path d="M184.021 62.5227H177.312V69.2045H184.021V62.5227Z" fill="black"/>
<path d="M23.0208 69.2045H16.3125V75.8864H23.0208V69.2045Z" fill="black"/>
<path d="M43.1458 69.2045H36.4375V75.8864H43.1458V69.2045Z" fill="black"/>
<path d="M49.8542 69.2045H43.1458V75.8864H49.8542V69.2045Z" fill="black"/>
<path d="M56.5625 69.2045H49.8542V75.8864H56.5625V69.2045Z" fill="black"/>
<path d="M63.2708 69.2045H56.5625V75.8864H63.2708V69.2045Z" fill="black"/>
<path d="M69.9792 69.2045H63.2708V75.8864H69.9792V69.2045Z" fill="black"/>
<path d="M76.6875 69.2045H69.9792V75.8864H76.6875V69.2045Z" fill="black"/>
<path d="M90.1042 69.2045H83.3958V75.8864H90.1042V69.2045Z" fill="black"/>
<path d="M184.021 69.2045H177.312V75.8864H184.021V69.2045Z" fill="black"/>
<path d="M190.729 69.2045H184.021V75.8864H190.729V69.2045Z" fill="black"/>
<path d="M197.438 69.2045H190.729V75.8864H197.438V69.2045Z" fill="black"/>
<path d="M210.854 69.2045H204.146V75.8864H210.854V69.2045Z" fill="black"/>
<path d="M237.688 69.2045H230.979V75.8864H237.688V69.2045Z" fill="black"/>
<path d="M23.0208 75.8864H16.3125V82.5682H23.0208V75.8864Z" fill="black"/>
<path d="M36.4375 75.8864H29.7292V82.5682H36.4375V75.8864Z" fill="black"/>
<path d="M43.1458 75.8864H36.4375V82.5682H43.1458V75.8864Z" fill="black"/>
<path d="M49.8542 75.8864H43.1458V82.5682H49.8542V75.8864Z" fill="black"/>
<path d="M69.9792 75.8864H63.2708V82.5682H69.9792V75.8864Z" fill="black"/>
<path d="M83.3958 75.8864H76.6875V82.5682H83.3958V75.8864Z" fill="black"/>
<path d="M90.1042 75.8864H83.3958V82.5682H90.1042V75.8864Z" fill="black"/>
<path d="M96.8125 75.8864H90.1042V82.5682H96.8125V75.8864Z" fill="black"/>
<path d="M110.229 75.8864H103.521V82.5682H110.229V75.8864Z" fill="black"/>
<path d="M123.646 75.8864H116.938V82.5682H123.646V75.8864Z" fill="black"/>
<path d="M130.354 75.8864H123.646V82.5682H130.354V75.8864Z" fill="black"/>
<path d="M137.062 75.8864H130.354V82.5682H137.062V75.8864Z" fill="black"/>
<path d="M143.771 75.8864H137.062V82.5682H143.771V75.8864Z" fill="black"/>
<path d="M157.188 75.8864H150.479V82.5682H157.188V75.8864Z" fill="black"/>
<path d="M163.896 75.8864H157.188V82.5682H163.896V75.8864Z" fill="black"/>
<path d="M170.604 75.8864H163.896V82.5682H170.604V75.8864Z" fill="black"/>
<path d="M190.729 75.8864H184.021V82.5682H190.729V75.8864Z" fill="black"/>
<path d="M204.146 75.8864H197.438V82.5682H204.146V75.8864Z" fill="black"/>
<path d="M210.854 75.8864H204.146V82.5682H210.854V75.8864Z" fill="black"/>
<path d="M224.271 75.8864H217.562V82.5682H224.271V75.8864Z" fill="black"/>
<path d="M230.979 75.8864H224.271V82.5682H230.979V75.8864Z" fill="black"/>
<path d="M237.688 75.8864H230.979V82.5682H237.688V75.8864Z" fill="black"/>
<path d="M23.0208 82.5682H16.3125V89.25H23.0208V82.5682Z" fill="black"/>
<path d="M29.7292 82.5682H23.0208V89.25H29.7292V82.5682Z" fill="black"/>
<path d="M43.1458 82.5682H36.4375V89.25H43.1458V82.5682Z" fill="black"/>
<path d="M56.5625 82.5682H49.8542V89.25H56.5625V82.5682Z" fill="black"/>
<path d="M63.2708 82.5682H56.5625V89.25H63.2708V82.5682Z" fill="black"/>
<path d="M76.6875 82.5682H69.9792V89.25H76.6875V82.5682Z" fill="black"/>
<path d="M90.1042 82.5682H83.3958V89.25H90.1042V82.5682Z" fill="black"/>
<path d="M103.521 82.5682H96.8125V89.25H103.521V82.5682Z" fill="black"/>
<path d="M110.229 82.5682H103.521V89.25H110.229V82.5682Z" fill="black"/>
<path d="M116.938 82.5682H110.229V89.25H116.938V82.5682Z" fill="black"/>
<path d="M143.771 82.5682H137.062V89.25H143.771V82.5682Z" fill="black"/>
<path d="M150.479 82.5682H143.771V89.25H150.479V82.5682Z" fill="black"/>
<path d="M157.188 82.5682H150.479V89.25H157.188V82.5682Z" fill="black"/>
<path d="M163.896 82.5682H157.188V89.25H163.896V82.5682Z" fill="black"/>
<path d="M170.604 82.5682H163.896V89.25H170.604V82.5682Z" fill="black"/>
<path d="M190.729 82.5682H184.021V89.25H190.729V82.5682Z" fill="black"/>
<path d="M197.438 82.5682H190.729V89.25H197.438V82.5682Z" fill="black"/>
<path d="M217.562 82.5682H210.854V89.25H217.562V82.5682Z" fill="black"/>
<path d="M230.979 82.5682H224.271V89.25H230.979V82.5682Z" fill="black"/>
<path d="M23.0208 89.25H16.3125V95.9318H23.0208V89.25Z" fill="black"/>
<path d="M49.8542 89.25H43.1458V95.9318H49.8542V89.25Z" fill="black"/>
<path d="M56.5625 89.25H49.8542V95.9318H56.5625V89.25Z" fill="black"/>
<path d="M69.9792 89.25H63.2708V95.9318H69.9792V89.25Z" fill="black"/>
<path d="M76.6875 89.25H69.9792V95.9318H76.6875V89.25Z" fill="black"/>
<path d="M96.8125 89.25H90.1042V95.9318H96.8125V89.25Z" fill="black"/>
<path d="M110.229 89.25H103.521V95.9318H110.229V89.25Z" fill="black"/>
<path d="M123.646 89.25H116.938V95.9318H123.646V89.25Z" fill="black"/>
<path d="M130.354 89.25H123.646V95.9318H130.354V89.25Z" fill="black"/>
<path d="M137.062 89.25H130.354V95.9318H137.062V89.25Z" fill="black"/>
<path d="M150.479 89.25H143.771L143.771 95.9318H150.479V89.25Z" fill="black"/>
<path d="M177.312 89.25H170.604V95.9318H177.312V89.25Z" fill="black"/>
<path d="M184.021 89.25H177.312V95.9318H184.021V89.25Z" fill="black"/>
<path d="M190.729 89.25H184.021V95.9318H190.729V89.25Z" fill="black"/>
<path d="M197.438 89.25H190.729V95.9318H197.438V89.25Z" fill="black"/>
<path d="M204.146 89.25H197.438V95.9318H204.146V89.25Z" fill="black"/>
<path d="M210.854 89.25H204.146V95.9318H210.854V89.25Z" fill="black"/>
<path d="M224.271 89.25H217.562V95.9318H224.271V89.25Z" fill="black"/>
<path d="M23.0208 95.9318H16.3125V102.614H23.0208V95.9318Z" fill="black"/>
<path d="M29.7292 95.9318H23.0208V102.614H29.7292V95.9318Z" fill="black"/>
<path d="M36.4375 95.9318H29.7292V102.614H36.4375V95.9318Z" fill="black"/>
<path d="M56.5625 95.9318H49.8542V102.614H56.5625V95.9318Z" fill="black"/>
<path d="M63.2708 95.9318H56.5625V102.614H63.2708V95.9318Z" fill="black"/>
<path d="M76.6875 95.9318H69.9792V102.614H76.6875V95.9318Z" fill="black"/>
<path d="M90.1042 95.9318H83.3958V102.614H90.1042V95.9318Z" fill="black"/>
<path d="M103.521 95.9318H96.8125V102.614H103.521V95.9318Z" fill="black"/>
<path d="M116.938 95.9318H110.229V102.614H116.938V95.9318Z" fill="black"/>
<path d="M130.354 95.9318H123.646V102.614H130.354V95.9318Z" fill="black"/>
<path d="M150.479 95.9318H143.771V102.614H150.479V95.9318Z" fill="black"/>
<path d="M177.312 95.9318H170.604V102.614H177.312V95.9318Z" fill="black"/>
<path d="M197.438 95.9318H190.729V102.614H197.438V95.9318Z" fill="black"/>
<path d="M204.146 95.9318H197.438V102.614H204.146V95.9318Z" fill="black"/>
<path d="M224.271 95.9318H217.562V102.614H224.271V95.9318Z" fill="black"/>
<path d="M36.4375 102.614H29.7292V109.295H36.4375V102.614Z" fill="black"/>
<path d="M56.5625 102.614H49.8542V109.295H56.5625V102.614Z" fill="black"/>
<path d="M83.3958 102.614H76.6875V109.295H83.3958V102.614Z" fill="black"/>
<path d="M103.521 102.614H96.8125V109.295H103.521V102.614Z" fill="black"/>
<path d="M110.229 102.614H103.521V109.295H110.229V102.614Z" fill="black"/>
<path d="M123.646 102.614H116.938V109.295H123.646V102.614Z" fill="black"/>
<path d="M137.062 102.614H130.354V109.295H137.062V102.614Z" fill="black"/>
<path d="M150.479 102.614H143.771V109.295H150.479V102.614Z" fill="black"/>
<path d="M157.188 102.614H150.479V109.295H157.188V102.614Z" fill="black"/>
<path d="M177.312 102.614H170.604V109.295H177.312V102.614Z" fill="black"/>
<path d="M204.146 102.614H197.438V109.295H204.146V102.614Z" fill="black"/>
<path d="M210.854 102.614H204.146V109.295H210.854V102.614Z" fill="black"/>
<path d="M237.688 102.614H230.979V109.295H237.688V102.614Z" fill="black"/>
<path d="M23.0208 109.295H16.3125V115.977H23.0208V109.295Z" fill="black"/>
<path d="M43.1458 109.295H36.4375V115.977H43.1458V109.295Z" fill="black"/>
<path d="M49.8542 109.295H43.1458V115.977H49.8542V109.295Z" fill="black"/>
<path d="M63.2708 109.295H56.5625V115.977H63.2708V109.295Z" fill="black"/>
<path d="M69.9792 109.295H63.2708V115.977H69.9792V109.295Z" fill="black"/>
<path d="M83.3958 109.295H76.6875V115.977H83.3958V109.295Z" fill="black"/>
<path d="M96.8125 109.295H90.1042V115.977H96.8125V109.295Z" fill="black"/>
<path d="M103.521 109.295H96.8125V115.977H103.521V109.295Z" fill="black"/>
<path d="M137.062 109.295H130.354V115.977H137.062V109.295Z" fill="black"/>
<path d="M163.896 109.295H157.188V115.977H163.896V109.295Z" fill="black"/>
<path d="M204.146 109.295H197.438V115.977H204.146V109.295Z" fill="black"/>
<path d="M23.0208 115.977H16.3125V122.659H23.0208V115.977Z" fill="black"/>
<path d="M43.1458 115.977H36.4375V122.659H43.1458V115.977Z" fill="black"/>
<path d="M69.9792 115.977H63.2708V122.659H69.9792V115.977Z" fill="black"/>
<path d="M83.3958 115.977H76.6875V122.659H83.3958V115.977Z" fill="black"/>
<path d="M90.1042 115.977H83.3958V122.659H90.1042V115.977Z" fill="black"/>
<path d="M103.521 115.977H96.8125V122.659H103.521V115.977Z" fill="black"/>
<path d="M130.354 115.977H123.646V122.659H130.354V115.977Z" fill="black"/>
<path d="M137.062 115.977H130.354V122.659H137.062V115.977Z" fill="black"/>
<path d="M143.771 115.977H137.062V122.659H143.771V115.977Z" fill="black"/>
<path d="M157.188 115.977H150.479V122.659H157.188V115.977Z" fill="black"/>
<path d="M170.604 115.977H163.896V122.659H170.604V115.977Z" fill="black"/>
<path d="M177.312 115.977H170.604V122.659H177.312V115.977Z" fill="black"/>
<path d="M190.729 115.977H184.021V122.659H190.729V115.977Z" fill="black"/>
<path d="M197.438 115.977H190.729V122.659H197.438V115.977Z" fill="black"/>
<path d="M210.854 115.977H204.146V122.659H210.854V115.977Z" fill="black"/>
<path d="M237.688 115.977H230.979V122.659H237.688V115.977Z" fill="black"/>
<path d="M23.0208 122.659H16.3125V129.341H23.0208V122.659Z" fill="black"/>
<path d="M29.7292 122.659H23.0208V129.341H29.7292V122.659Z" fill="black"/>
<path d="M36.4375 122.659H29.7292V129.341H36.4375V122.659Z" fill="black"/>
<path d="M56.5625 122.659H49.8542V129.341H56.5625V122.659Z" fill="black"/>
<path d="M63.2708 122.659H56.5625V129.341H63.2708V122.659Z" fill="black"/>
<path d="M69.9792 122.659H63.2708V129.341H69.9792V122.659Z" fill="black"/>
<path d="M76.6875 122.659H69.9792V129.341H76.6875V122.659Z" fill="black"/>
<path d="M83.3958 122.659H76.6875V129.341H83.3958V122.659Z" fill="black"/>
<path d="M110.229 122.659H103.521V129.341H110.229V122.659Z" fill="black"/>
<path d="M116.938 122.659H110.229V129.341H116.938V122.659Z" fill="black"/>
<path d="M137.062 122.659H130.354V129.341H137.062V122.659Z" fill="black"/>
<path d="M150.479 122.659H143.771L143.771 129.341H150.479V122.659Z" fill="black"/>
<path d="M157.188 122.659H150.479V129.341H157.188V122.659Z" fill="black"/>
<path d="M177.312 122.659H170.604V129.341H177.312V122.659Z" fill="black"/>
<path d="M190.729 122.659H184.021V129.341H190.729V122.659Z" fill="black"/>
<path d="M217.562 122.659H210.854V129.341H217.562V122.659Z" fill="black"/>
<path d="M224.271 122.659H217.562V129.341H224.271V122.659Z" fill="black"/>
<path d="M23.0208 129.341H16.3125V136.023H23.0208V129.341Z" fill="black"/>
<path d="M29.7292 129.341H23.0208V136.023H29.7292V129.341Z" fill="black"/>
<path d="M43.1458 129.341H36.4375V136.023H43.1458V129.341Z" fill="black"/>
<path d="M49.8542 129.341H43.1458V136.023H49.8542V129.341Z" fill="black"/>
<path d="M56.5625 129.341H49.8542V136.023H56.5625V129.341Z" fill="black"/>
<path d="M69.9792 129.341H63.2708V136.023H69.9792V129.341Z" fill="black"/>
<path d="M76.6875 129.341H69.9792V136.023H76.6875V129.341Z" fill="black"/>
<path d="M90.1042 129.341H83.3958V136.023H90.1042V129.341Z" fill="black"/>
<path d="M96.8125 129.341H90.1042V136.023H96.8125V129.341Z" fill="black"/>
<path d="M123.646 129.341H116.938V136.023H123.646V129.341Z" fill="black"/>
<path d="M130.354 129.341H123.646V136.023H130.354V129.341Z" fill="black"/>
<path d="M137.062 129.341H130.354V136.023H137.062V129.341Z" fill="black"/>
<path d="M163.896 129.341H157.188V136.023H163.896V129.341Z" fill="black"/>
<path d="M177.312 129.341H170.604V136.023H177.312V129.341Z" fill="black"/>
<path d="M184.021 129.341H177.312V136.023H184.021V129.341Z" fill="black"/>
<path d="M197.438 129.341H190.729V136.023H197.438V129.341Z" fill="black"/>
<path d="M204.146 129.341H197.438V136.023H204.146V129.341Z" fill="black"/>
<path d="M217.562 129.341H210.854V136.023H217.562V129.341Z" fill="black"/>
<path d="M224.271 129.341H217.562V136.023H224.271V129.341Z" fill="black"/>
<path d="M230.979 129.341H224.271V136.023H230.979V129.341Z" fill="black"/>
<path d="M237.688 129.341H230.979V136.023H237.688V129.341Z" fill="black"/>
<path d="M23.0208 136.023H16.3125V142.705H23.0208V136.023Z" fill="black"/>
<path d="M43.1458 136.023H36.4375V142.705H43.1458V136.023Z" fill="black"/>
<path d="M49.8542 136.023H43.1458V142.705H49.8542V136.023Z" fill="black"/>
<path d="M63.2708 136.023H56.5625V142.705H63.2708V136.023Z" fill="black"/>
<path d="M83.3958 136.023H76.6875V142.705H83.3958V136.023Z" fill="black"/>
<path d="M96.8125 136.023H90.1042V142.705H96.8125V136.023Z" fill="black"/>
<path d="M103.521 136.023H96.8125V142.705H103.521V136.023Z" fill="black"/>
<path d="M123.646 136.023H116.938V142.705H123.646V136.023Z" fill="black"/>
<path d="M137.062 136.023H130.354V142.705H137.062V136.023Z" fill="black"/>
<path d="M143.771 136.023H137.062V142.705H143.771V136.023Z" fill="black"/>
<path d="M163.896 136.023H157.188V142.705H163.896V136.023Z" fill="black"/>
<path d="M170.604 136.023H163.896V142.705H170.604V136.023Z" fill="black"/>
<path d="M177.312 136.023H170.604V142.705H177.312V136.023Z" fill="black"/>
<path d="M190.729 136.023H184.021V142.705H190.729V136.023Z" fill="black"/>
<path d="M204.146 136.023H197.438V142.705H204.146V136.023Z" fill="black"/>
<path d="M210.854 136.023H204.146V142.705H210.854V136.023Z" fill="black"/>
<path d="M224.271 136.023H217.562V142.705H224.271V136.023Z" fill="black"/>
<path d="M230.979 136.023H224.271V142.705H230.979V136.023Z" fill="black"/>
<path d="M237.688 136.023H230.979V142.705H237.688V136.023Z" fill="black"/>
<path d="M29.7292 142.705L23.0208 142.705V149.386H29.7292V142.705Z" fill="black"/>
<path d="M43.1458 142.705H36.4375V149.386H43.1458V142.705Z" fill="black"/>
<path d="M49.8542 142.705H43.1458V149.386H49.8542V142.705Z" fill="black"/>
<path d="M56.5625 142.705H49.8542V149.386H56.5625V142.705Z" fill="black"/>
<path d="M76.6875 142.705L69.9792 142.705V149.386H76.6875V142.705Z" fill="black"/>
<path d="M103.521 142.705H96.8125V149.386H103.521V142.705Z" fill="black"/>
<path d="M110.229 142.705L103.521 142.705V149.386H110.229V142.705Z" fill="black"/>
<path d="M116.938 142.705L110.229 142.705V149.386H116.938V142.705Z" fill="black"/>
<path d="M123.646 142.705H116.938V149.386H123.646V142.705Z" fill="black"/>
<path d="M150.479 142.705L143.771 142.705L143.771 149.386H150.479V142.705Z" fill="black"/>
<path d="M157.188 142.705L150.479 142.705V149.386H157.188V142.705Z" fill="black"/>
<path d="M163.896 142.705H157.188V149.386H163.896V142.705Z" fill="black"/>
<path d="M184.021 142.705H177.312V149.386H184.021V142.705Z" fill="black"/>
<path d="M204.146 142.705H197.438V149.386H204.146V142.705Z" fill="black"/>
<path d="M210.854 142.705H204.146V149.386H210.854V142.705Z" fill="black"/>
<path d="M217.562 142.705H210.854V149.386H217.562V142.705Z" fill="black"/>
<path d="M224.271 142.705H217.562V149.386H224.271V142.705Z" fill="black"/>
<path d="M230.979 142.705H224.271V149.386H230.979V142.705Z" fill="black"/>
<path d="M23.0208 149.386H16.3125V156.068H23.0208V149.386Z" fill="black"/>
<path d="M36.4375 149.386H29.7292V156.068H36.4375V149.386Z" fill="black"/>
<path d="M43.1458 149.386H36.4375V156.068H43.1458V149.386Z" fill="black"/>
<path d="M49.8542 149.386H43.1458V156.068H49.8542V149.386Z" fill="black"/>
<path d="M63.2708 149.386H56.5625V156.068H63.2708V149.386Z" fill="black"/>
<path d="M76.6875 149.386H69.9792V156.068H76.6875V149.386Z" fill="black"/>
<path d="M90.1042 149.386H83.3958V156.068H90.1042V149.386Z" fill="black"/>
<path d="M103.521 149.386H96.8125V156.068H103.521V149.386Z" fill="black"/>
<path d="M123.646 149.386H116.938V156.068H123.646V149.386Z" fill="black"/>
<path d="M130.354 149.386H123.646V156.068H130.354V149.386Z" fill="black"/>
<path d="M163.896 149.386H157.188V156.068H163.896V149.386Z" fill="black"/>
<path d="M170.604 149.386H163.896V156.068H170.604V149.386Z" fill="black"/>
<path d="M197.438 149.386H190.729V156.068H197.438V149.386Z" fill="black"/>
<path d="M204.146 149.386H197.438V156.068H204.146V149.386Z" fill="black"/>
<path d="M210.854 149.386H204.146V156.068H210.854V149.386Z" fill="black"/>
<path d="M230.979 149.386H224.271V156.068H230.979V149.386Z" fill="black"/>
<path d="M237.688 149.386H230.979V156.068H237.688V149.386Z" fill="black"/>
<path d="M23.0208 156.068H16.3125V162.75H23.0208V156.068Z" fill="black"/>
<path d="M29.7292 156.068H23.0208V162.75H29.7292V156.068Z" fill="black"/>
<path d="M36.4375 156.068H29.7292V162.75H36.4375V156.068Z" fill="black"/>
<path d="M49.8542 156.068H43.1458V162.75H49.8542V156.068Z" fill="black"/>
<path d="M56.5625 156.068H49.8542V162.75H56.5625V156.068Z" fill="black"/>
<path d="M69.9792 156.068H63.2708V162.75H69.9792V156.068Z" fill="black"/>
<path d="M76.6875 156.068H69.9792V162.75H76.6875V156.068Z" fill="black"/>
<path d="M90.1042 156.068H83.3958V162.75H90.1042V156.068Z" fill="black"/>
<path d="M96.8125 156.068H90.1042V162.75H96.8125V156.068Z" fill="black"/>
<path d="M103.521 156.068H96.8125V162.75H103.521V156.068Z" fill="black"/>
<path d="M123.646 156.068H116.938V162.75H123.646V156.068Z" fill="black"/>
<path d="M130.354 156.068H123.646V162.75H130.354V156.068Z" fill="black"/>
<path d="M150.479 156.068H143.771V162.75H150.479V156.068Z" fill="black"/>
<path d="M157.188 156.068H150.479V162.75H157.188V156.068Z" fill="black"/>
<path d="M170.604 156.068H163.896V162.75H170.604V156.068Z" fill="black"/>
<path d="M177.312 156.068H170.604V162.75H177.312V156.068Z" fill="black"/>
<path d="M184.021 156.068H177.312V162.75H184.021V156.068Z" fill="black"/>
<path d="M190.729 156.068H184.021V162.75H190.729V156.068Z" fill="black"/>
<path d="M204.146 156.068H197.438V162.75H204.146V156.068Z" fill="black"/>
<path d="M224.271 156.068H217.562V162.75H224.271V156.068Z" fill="black"/>
<path d="M230.979 156.068H224.271V162.75H230.979V156.068Z" fill="black"/>
<path d="M237.688 156.068H230.979V162.75H237.688V156.068Z" fill="black"/>
<path d="M29.7292 162.75H23.0208V169.432H29.7292V162.75Z" fill="black"/>
<path d="M36.4375 162.75H29.7292V169.432H36.4375V162.75Z" fill="black"/>
<path d="M56.5625 162.75H49.8542V169.432H56.5625V162.75Z" fill="black"/>
<path d="M63.2708 162.75H56.5625V169.432H63.2708V162.75Z" fill="black"/>
<path d="M69.9792 162.75H63.2708V169.432H69.9792V162.75Z" fill="black"/>
<path d="M76.6875 162.75H69.9792V169.432H76.6875V162.75Z" fill="black"/>
<path d="M83.3958 162.75H76.6875V169.432H83.3958V162.75Z" fill="black"/>
<path d="M103.521 162.75H96.8125V169.432H103.521V162.75Z" fill="black"/>
<path d="M116.938 162.75H110.229V169.432H116.938V162.75Z" fill="black"/>
<path d="M130.354 162.75H123.646V169.432H130.354V162.75Z" fill="black"/>
<path d="M137.062 162.75H130.354V169.432H137.062V162.75Z" fill="black"/>
<path d="M177.312 162.75H170.604V169.432H177.312V162.75Z" fill="black"/>
<path d="M184.021 162.75H177.312V169.432H184.021V162.75Z" fill="black"/>
<path d="M224.271 162.75H217.562V169.432H224.271V162.75Z" fill="black"/>
<path d="M237.688 162.75H230.979V169.432H237.688V162.75Z" fill="black"/>
<path d="M23.0208 169.432H16.3125V176.114H23.0208V169.432Z" fill="black"/>
<path d="M36.4375 169.432H29.7292V176.114H36.4375V169.432Z" fill="black"/>
<path d="M49.8542 169.432H43.1458V176.114H49.8542V169.432Z" fill="black"/>
<path d="M83.3958 169.432H76.6875V176.114H83.3958V169.432Z" fill="black"/>
<path d="M90.1042 169.432H83.3958V176.114H90.1042V169.432Z" fill="black"/>
<path d="M103.521 169.432H96.8125V176.114H103.521V169.432Z" fill="black"/>
<path d="M110.229 169.432H103.521V176.114H110.229V169.432Z" fill="black"/>
<path d="M116.938 169.432H110.229V176.114H116.938V169.432Z" fill="black"/>
<path d="M130.354 169.432H123.646V176.114H130.354V169.432Z" fill="black"/>
<path d="M137.062 169.432H130.354V176.114H137.062V169.432Z" fill="black"/>
<path d="M143.771 169.432H137.062V176.114H143.771V169.432Z" fill="black"/>
<path d="M170.604 169.432H163.896V176.114H170.604V169.432Z" fill="black"/>
<path d="M177.312 169.432H170.604V176.114H177.312V169.432Z" fill="black"/>
<path d="M190.729 169.432H184.021V176.114H190.729V169.432Z" fill="black"/>
<path d="M217.562 169.432H210.854V176.114H217.562V169.432Z" fill="black"/>
<path d="M230.979 169.432H224.271V176.114H230.979V169.432Z" fill="black"/>
<path d="M237.688 169.432H230.979V176.114H237.688V169.432Z" fill="black"/>
<path d="M63.2708 176.114H56.5625V182.795H63.2708V176.114Z" fill="black"/>
<path d="M76.6875 176.114H69.9792V182.795H76.6875V176.114Z" fill="black"/>
<path d="M96.8125 176.114H90.1042V182.795H96.8125V176.114Z" fill="black"/>
<path d="M116.938 176.114H110.229V182.795H116.938V176.114Z" fill="black"/>
<path d="M123.646 176.114H116.938V182.795H123.646V176.114Z" fill="black"/>
<path d="M130.354 176.114H123.646V182.795H130.354V176.114Z" fill="black"/>
<path d="M137.062 176.114H130.354V182.795H137.062V176.114Z" fill="black"/>
<path d="M143.771 176.114H137.062V182.795H143.771V176.114Z" fill="black"/>
<path d="M150.479 176.114H143.771V182.795H150.479V176.114Z" fill="black"/>
<path d="M170.604 176.114H163.896V182.795H170.604V176.114Z" fill="black"/>
<path d="M184.021 176.114H177.312V182.795H184.021V176.114Z" fill="black"/>
<path d="M190.729 176.114H184.021V182.795H190.729V176.114Z" fill="black"/>
<path d="M197.438 176.114H190.729V182.795H197.438V176.114Z" fill="black"/>
<path d="M204.146 176.114H197.438V182.795H204.146V176.114Z" fill="black"/>
<path d="M210.854 176.114H204.146V182.795H210.854V176.114Z" fill="black"/>
<path d="M230.979 176.114H224.271V182.795H230.979V176.114Z" fill="black"/>
<path d="M237.688 176.114H230.979V182.795H237.688V176.114Z" fill="black"/>
<path d="M76.6875 182.795H69.9792V189.477H76.6875V182.795Z" fill="black"/>
<path d="M83.3958 182.795H76.6875V189.477H83.3958V182.795Z" fill="black"/>
<path d="M90.1042 182.795H83.3958V189.477H90.1042V182.795Z" fill="black"/>
<path d="M110.229 182.795H103.521V189.477H110.229V182.795Z" fill="black"/>
<path d="M116.938 182.795H110.229V189.477H116.938V182.795Z" fill="black"/>
<path d="M123.646 182.795H116.938V189.477H123.646V182.795Z" fill="black"/>
<path d="M143.771 182.795H137.062V189.477H143.771V182.795Z" fill="black"/>
<path d="M150.479 182.795H143.771V189.477H150.479V182.795Z" fill="black"/>
<path d="M163.896 182.795H157.188V189.477H163.896V182.795Z" fill="black"/>
<path d="M170.604 182.795H163.896V189.477H170.604V182.795Z" fill="black"/>
<path d="M177.312 182.795H170.604V189.477H177.312V182.795Z" fill="black"/>
<path d="M184.021 182.795H177.312V189.477H184.021V182.795Z" fill="black"/>
<path d="M210.854 182.795H204.146V189.477H210.854V182.795Z" fill="black"/>
<path d="M224.271 182.795H217.562V189.477H224.271V182.795Z" fill="black"/>
<path d="M230.979 182.795H224.271V189.477H230.979V182.795Z" fill="black"/>
<path d="M237.688 182.795H230.979V189.477H237.688V182.795Z" fill="black"/>
<path d="M23.0208 189.477H16.3125V196.159H23.0208V189.477Z" fill="black"/>
<path d="M29.7292 189.477H23.0208V196.159H29.7292V189.477Z" fill="black"/>
<path d="M36.4375 189.477H29.7292V196.159H36.4375V189.477Z" fill="black"/>
<path d="M43.1458 189.477H36.4375V196.159H43.1458V189.477Z" fill="black"/>
<path d="M49.8542 189.477H43.1458V196.159H49.8542V189.477Z" fill="black"/>
<path d="M56.5625 189.477H49.8542V196.159H56.5625V189.477Z" fill="black"/>
<path d="M63.2708 189.477H56.5625V196.159H63.2708V189.477Z" fill="black"/>
<path d="M76.6875 189.477H69.9792V196.159H76.6875V189.477Z" fill="black"/>
<path d="M90.1042 189.477H83.3958V196.159H90.1042V189.477Z" fill="black"/>
<path d="M103.521 189.477H96.8125V196.159H103.521V189.477Z" fill="black"/>
<path d="M116.938 189.477H110.229V196.159H116.938V189.477Z" fill="black"/>
<path d="M123.646 189.477H116.938V196.159H123.646V189.477Z" fill="black"/>
<path d="M130.354 189.477H123.646V196.159H130.354V189.477Z" fill="black"/>
<path d="M157.188 189.477H150.479V196.159H157.188V189.477Z" fill="black"/>
<path d="M177.312 189.477H170.604V196.159H177.312V189.477Z" fill="black"/>
<path d="M184.021 189.477H177.312V196.159H184.021V189.477Z" fill="black"/>
<path d="M197.438 189.477H190.729V196.159H197.438V189.477Z" fill="black"/>
<path d="M210.854 189.477H204.146V196.159H210.854V189.477Z" fill="black"/>
<path d="M217.562 189.477H210.854V196.159H217.562V189.477Z" fill="black"/>
<path d="M224.271 189.477H217.562V196.159H224.271V189.477Z" fill="black"/>
<path d="M230.979 189.477H224.271V196.159H230.979V189.477Z" fill="black"/>
<path d="M23.0208 196.159H16.3125V202.841H23.0208V196.159Z" fill="black"/>
<path d="M63.2708 196.159H56.5625V202.841H63.2708V196.159Z" fill="black"/>
<path d="M76.6875 196.159H69.9792V202.841H76.6875V196.159Z" fill="black"/>
<path d="M110.229 196.159H103.521V202.841H110.229V196.159Z" fill="black"/>
<path d="M143.771 196.159H137.062V202.841H143.771V196.159Z" fill="black"/>
<path d="M150.479 196.159H143.771V202.841H150.479V196.159Z" fill="black"/>
<path d="M163.896 196.159H157.188V202.841H163.896V196.159Z" fill="black"/>
<path d="M184.021 196.159H177.312V202.841H184.021V196.159Z" fill="black"/>
<path d="M210.854 196.159H204.146V202.841H210.854V196.159Z" fill="black"/>
<path d="M217.562 196.159H210.854V202.841H217.562V196.159Z" fill="black"/>
<path d="M224.271 196.159H217.562V202.841H224.271V196.159Z" fill="black"/>
<path d="M23.0208 202.841H16.3125V209.523H23.0208V202.841Z" fill="black"/>
<path d="M36.4375 202.841H29.7292V209.523H36.4375V202.841Z" fill="black"/>
<path d="M43.1458 202.841H36.4375V209.523H43.1458V202.841Z" fill="black"/>
<path d="M49.8542 202.841H43.1458V209.523H49.8542V202.841Z" fill="black"/>
<path d="M63.2708 202.841H56.5625V209.523H63.2708V202.841Z" fill="black"/>
<path d="M76.6875 202.841H69.9792V209.523H76.6875V202.841Z" fill="black"/>
<path d="M103.521 202.841H96.8125V209.523H103.521V202.841Z" fill="black"/>
<path d="M116.938 202.841H110.229V209.523H116.938V202.841Z" fill="black"/>
<path d="M123.646 202.841H116.938V209.523H123.646V202.841Z" fill="black"/>
<path d="M130.354 202.841H123.646V209.523H130.354V202.841Z" fill="black"/>
<path d="M157.188 202.841H150.479V209.523H157.188V202.841Z" fill="black"/>
<path d="M184.021 202.841H177.312V209.523H184.021V202.841Z" fill="black"/>
<path d="M190.729 202.841H184.021V209.523H190.729V202.841Z" fill="black"/>
<path d="M197.438 202.841H190.729V209.523H197.438V202.841Z" fill="black"/>
<path d="M204.146 202.841H197.438V209.523H204.146V202.841Z" fill="black"/>
<path d="M210.854 202.841H204.146V209.523H210.854V202.841Z" fill="black"/>
<path d="M217.562 202.841H210.854V209.523H217.562V202.841Z" fill="black"/>
<path d="M224.271 202.841H217.562V209.523H224.271V202.841Z" fill="black"/>
<path d="M23.0208 209.523H16.3125V216.205H23.0208V209.523Z" fill="black"/>
<path d="M36.4375 209.523H29.7292V216.205H36.4375V209.523Z" fill="black"/>
<path d="M43.1458 209.523H36.4375V216.205H43.1458V209.523Z" fill="black"/>
<path d="M49.8542 209.523H43.1458V216.205H49.8542V209.523Z" fill="black"/>
<path d="M63.2708 209.523H56.5625V216.205H63.2708V209.523Z" fill="black"/>
<path d="M76.6875 209.523H69.9792V216.205H76.6875V209.523Z" fill="black"/>
<path d="M83.3958 209.523H76.6875V216.205H83.3958V209.523Z" fill="black"/>
<path d="M90.1042 209.523H83.3958V216.205H90.1042V209.523Z" fill="black"/>
<path d="M103.521 209.523H96.8125V216.205H103.521V209.523Z" fill="black"/>
<path d="M110.229 209.523H103.521V216.205H110.229V209.523Z" fill="black"/>
<path d="M116.938 209.523H110.229V216.205H116.938V209.523Z" fill="black"/>
<path d="M137.062 209.523H130.354V216.205H137.062V209.523Z" fill="black"/>
<path d="M143.771 209.523H137.062V216.205H143.771V209.523Z" fill="black"/>
<path d="M157.188 209.523H150.479V216.205H157.188V209.523Z" fill="black"/>
<path d="M163.896 209.523H157.188V216.205H163.896V209.523Z" fill="black"/>
<path d="M197.438 209.523H190.729V216.205H197.438V209.523Z" fill="black"/>
<path d="M210.854 209.523H204.146V216.205H210.854V209.523Z" fill="black"/>
<path d="M217.562 209.523H210.854V216.205H217.562V209.523Z" fill="black"/>
<path d="M237.688 209.523H230.979V216.205H237.688V209.523Z" fill="black"/>
<path d="M23.0208 216.205H16.3125V222.886H23.0208V216.205Z" fill="black"/>
<path d="M36.4375 216.205H29.7292V222.886H36.4375V216.205Z" fill="black"/>
<path d="M43.1458 216.205H36.4375V222.886H43.1458V216.205Z" fill="black"/>
<path d="M49.8542 216.205H43.1458V222.886H49.8542V216.205Z" fill="black"/>
<path d="M63.2708 216.205H56.5625V222.886H63.2708V216.205Z" fill="black"/>
<path d="M83.3958 216.205H76.6875V222.886H83.3958V216.205Z" fill="black"/>
<path d="M137.062 216.205H130.354V222.886H137.062V216.205Z" fill="black"/>
<path d="M170.604 216.205H163.896V222.886H170.604V216.205Z" fill="black"/>
<path d="M190.729 216.205H184.021V222.886H190.729V216.205Z" fill="black"/>
<path d="M217.562 216.205H210.854V222.886H217.562V216.205Z" fill="black"/>
<path d="M224.271 216.205H217.562V222.886H224.271V216.205Z" fill="black"/>
<path d="M237.688 216.205H230.979V222.886H237.688V216.205Z" fill="black"/>
<path d="M23.0208 222.886H16.3125V229.568H23.0208V222.886Z" fill="black"/>
<path d="M63.2708 222.886H56.5625V229.568H63.2708V222.886Z" fill="black"/>
<path d="M83.3958 222.886H76.6875V229.568H83.3958V222.886Z" fill="black"/>
<path d="M90.1042 222.886H83.3958V229.568H90.1042V222.886Z" fill="black"/>
<path d="M96.8125 222.886H90.1042V229.568H96.8125V222.886Z" fill="black"/>
<path d="M116.938 222.886H110.229V229.568H116.938V222.886Z" fill="black"/>
<path d="M130.354 222.886H123.646V229.568H130.354V222.886Z" fill="black"/>
<path d="M137.062 222.886H130.354V229.568H137.062V222.886Z" fill="black"/>
<path d="M143.771 222.886H137.062V229.568H143.771V222.886Z" fill="black"/>
<path d="M163.896 222.886H157.188V229.568H163.896V222.886Z" fill="black"/>
<path d="M170.604 222.886H163.896V229.568H170.604V222.886Z" fill="black"/>
<path d="M184.021 222.886H177.312V229.568H184.021V222.886Z" fill="black"/>
<path d="M197.438 222.886H190.729V229.568H197.438V222.886Z" fill="black"/>
<path d="M204.146 222.886H197.438V229.568H204.146V222.886Z" fill="black"/>
<path d="M23.0208 229.568H16.3125V236.25H23.0208V229.568Z" fill="black"/>
<path d="M29.7292 229.568H23.0208V236.25H29.7292V229.568Z" fill="black"/>
<path d="M36.4375 229.568H29.7292V236.25H36.4375V229.568Z" fill="black"/>
<path d="M43.1458 229.568H36.4375V236.25H43.1458V229.568Z" fill="black"/>
<path d="M49.8542 229.568H43.1458V236.25H49.8542V229.568Z" fill="black"/>
<path d="M56.5625 229.568H49.8542V236.25H56.5625V229.568Z" fill="black"/>
<path d="M63.2708 229.568H56.5625V236.25H63.2708V229.568Z" fill="black"/>
<path d="M76.6875 229.568H69.9792V236.25H76.6875V229.568Z" fill="black"/>
<path d="M96.8125 229.568H90.1042V236.25H96.8125V229.568Z" fill="black"/>
<path d="M157.188 229.568H150.479V236.25H157.188V229.568Z" fill="black"/>
<path d="M184.021 229.568H177.312V236.25H184.021V229.568Z" fill="black"/>
<path d="M210.854 229.568H204.146V236.25H210.854V229.568Z" fill="black"/>
<path d="M237.688 229.568H230.979V236.25H237.688V229.568Z" fill="black"/>
</g>
<defs>
<clipPath id="clip0_448_3157">
<rect width="253" height="252" fill="white" transform="translate(0.5)"/>
</clipPath>
</defs>
</svg>
