<svg aria-hidden="true" style="position: absolute; width: 0; height: 0; overflow: hidden;" version="1.1" xmlns="http://www.w3.org/2000/svg" xmlns:xlink="http://www.w3.org/1999/xlink">
<defs>
<symbol id="icon-arrow-up" viewBox="0 0 33 32">
<path fill="none" stroke="#492d7a" style="stroke: var(--color1, #492d7a)" stroke-linejoin="miter" stroke-linecap="butt" stroke-miterlimit="4" stroke-width="0.8" d="M6 20l10.4-8 10.4 8"></path>
</symbol>
<symbol id="icon-burger-icon" viewBox="0 0 32 32">
<path fill="none" stroke="#fafafa" style="stroke: var(--color2, #fafafa)" stroke-linejoin="round" stroke-linecap="round" stroke-miterlimit="4" stroke-width="0.381" d="M4 8.001h24M4 16.001h24M4 24.001h24"></path>
</symbol>
<symbol id="icon-cross-icon" viewBox="0 0 32 32">
<path fill="#fafafa" style="fill: var(--color2, #fafafa)" d="M9.608 23.2l-0.808-0.808 6.392-6.392-6.392-6.392 0.808-0.808 6.392 6.392 6.392-6.392 0.808 0.808-6.392 6.392 6.392 6.392-0.808 0.808-6.392-6.392-6.392 6.392z"></path>
</symbol>
<symbol id="icon-done-icon" viewBox="0 0 32 32">
<path fill="#492d7a" style="fill: var(--color1, #492d7a)" d="M16 1.778c-2.813 0-5.563 0.834-7.901 2.397s-4.162 3.784-5.238 6.383-1.358 5.458-0.809 8.217c0.549 2.759 1.903 5.293 3.892 7.282s4.523 3.343 7.282 3.892c2.759 0.549 5.618 0.267 8.217-0.809s4.82-2.899 6.383-5.238c1.563-2.339 2.397-5.089 2.397-7.901 0-3.772-1.498-7.389-4.166-10.057s-6.285-4.166-10.057-4.166zM16 28.445c-2.461 0-4.867-0.73-6.914-2.097s-3.642-3.311-4.583-5.585c-0.942-2.274-1.188-4.776-0.708-7.19s1.665-4.631 3.406-6.372c1.74-1.74 3.958-2.926 6.372-3.406s4.916-0.234 7.19 0.708 4.217 2.537 5.585 4.583c1.367 2.046 2.097 4.453 2.097 6.914 0 3.3-1.311 6.466-3.645 8.8s-5.499 3.645-8.8 3.645z"></path>
<path fill="#492d7a" style="fill: var(--color1, #492d7a)" d="M24.888 10.755c-0.167-0.166-0.392-0.259-0.627-0.259s-0.46 0.093-0.627 0.259l-9.867 9.822-5.333-5.333c-0.163-0.176-0.388-0.279-0.628-0.289s-0.472 0.077-0.648 0.24c-0.176 0.163-0.279 0.388-0.289 0.628s0.077 0.472 0.24 0.648l6.658 6.64 11.12-11.093c0.083-0.083 0.149-0.181 0.195-0.289s0.068-0.225 0.068-0.342-0.023-0.234-0.068-0.342c-0.045-0.108-0.111-0.207-0.195-0.289z"></path>
</symbol>
<symbol id="icon-facebook-icon" viewBox="0 0 31 32">
<path fill="#fafafa" style="fill: var(--color2, #fafafa)" d="M15.385 0.615c-8.497 0-15.385 6.888-15.385 15.385 0 7.215 4.967 13.269 11.668 14.932v-10.23h-3.172v-4.702h3.172v-2.026c0-5.236 2.37-7.663 7.511-7.663 0.975 0 2.657 0.191 3.345 0.382v4.262c-0.363-0.038-0.994-0.057-1.777-0.057-2.522 0-3.497 0.956-3.497 3.44v1.663h5.025l-0.863 4.702h-4.162v10.57c7.618-0.92 13.521-7.406 13.521-15.272-0.001-8.497-6.889-15.385-15.385-15.385z"></path>
</symbol>
<symbol id="icon-header-logo" viewBox="0 0 90 32">
<path fill="#fafafa" style="fill: var(--color2, #fafafa)" d="M35.623 16.917c0-0.167 0.181-0.302 0.405-0.302h53.529c0.224 0 0.405 0.135 0.405 0.302s-0.181 0.302-0.405 0.302h-53.529c-0.224 0-0.405-0.135-0.405-0.302z"></path>
<path fill="#fafafa" style="fill: var(--color2, #fafafa)" d="M80.662 12.38c-0.613 0-1.105-0.176-1.477-0.528-0.362-0.352-0.543-0.774-0.543-1.266 0-0.512 0.13-0.914 0.392-1.206 0.271-0.291 0.623-0.507 1.055-0.648 0.442-0.141 0.92-0.236 1.432-0.286 0.523-0.050 1.030-0.090 1.523-0.121v-1.191c0-0.472-0.121-0.839-0.362-1.1-0.231-0.271-0.628-0.407-1.191-0.407-0.282 0-0.548 0.090-0.799 0.271-0.241 0.181-0.362 0.442-0.362 0.784 0 0.161 0.040 0.296 0.121 0.407s0.161 0.196 0.241 0.256c0.080 0.060 0.121 0.101 0.121 0.121 0 0.040-0.060 0.116-0.181 0.226-0.111 0.101-0.266 0.151-0.467 0.151-0.312 0-0.553-0.116-0.724-0.347s-0.256-0.487-0.256-0.769c0-0.382 0.115-0.683 0.347-0.904 0.241-0.221 0.548-0.382 0.92-0.482s0.749-0.151 1.13-0.151c0.452 0 0.889 0.055 1.311 0.166 0.432 0.111 0.784 0.322 1.055 0.633 0.281 0.311 0.422 0.779 0.422 1.402v3.512c0.010 0.1 0.035 0.221 0.075 0.362s0.115 0.266 0.226 0.377c0.121 0.1 0.281 0.151 0.482 0.151 0.071 0 0.126 0.015 0.166 0.045 0.040 0.020 0.060 0.085 0.060 0.196 0 0.090-0.050 0.161-0.151 0.211s-0.216 0.085-0.347 0.106c-0.131 0.020-0.242 0.030-0.331 0.030-0.372 0-0.703-0.105-0.995-0.316-0.292-0.221-0.463-0.523-0.513-0.904-0.221 0.402-0.552 0.708-0.995 0.919-0.432 0.201-0.894 0.301-1.387 0.301zM81.145 11.566c0.342 0 0.653-0.085 0.935-0.256 0.292-0.171 0.523-0.402 0.694-0.693 0.181-0.301 0.271-0.633 0.271-0.995v-0.859c-1.035 0.070-1.774 0.236-2.216 0.497s-0.663 0.688-0.663 1.281c0 0.683 0.326 1.025 0.979 1.025z"></path>
<path fill="#fafafa" style="fill: var(--color2, #fafafa)" d="M69.845 12.245c-0.071 0-0.131-0.030-0.181-0.090-0.040-0.070-0.060-0.141-0.060-0.211 0.021-0.151 0.060-0.231 0.121-0.241 0.060-0.020 0.141-0.030 0.241-0.030 0.281 0 0.473-0.045 0.573-0.136 0.101-0.101 0.156-0.231 0.166-0.392 0.020-0.161 0.030-0.327 0.030-0.497v-3.452c0-0.181-0.010-0.347-0.030-0.497-0.010-0.161-0.065-0.286-0.166-0.377-0.1-0.101-0.292-0.151-0.573-0.151-0.090 0-0.176-0.010-0.256-0.030-0.070-0.030-0.106-0.121-0.106-0.271s0.080-0.241 0.242-0.271c0.462-0.070 0.814-0.141 1.055-0.211 0.251-0.070 0.437-0.131 0.558-0.181 0.13-0.050 0.246-0.080 0.347-0.090 0.080-0.010 0.146 0.005 0.196 0.045 0.060 0.040 0.091 0.121 0.091 0.241v0.95h0.045c0.2-0.191 0.407-0.372 0.618-0.543 0.211-0.181 0.457-0.327 0.738-0.437 0.292-0.121 0.648-0.181 1.070-0.181 0.683 0 1.226 0.206 1.628 0.618s0.603 0.955 0.603 1.628v3.211c0 0.171 0.005 0.337 0.015 0.497 0.020 0.161 0.080 0.291 0.181 0.392 0.111 0.090 0.306 0.136 0.587 0.136 0.091 0 0.166 0.010 0.226 0.030 0.070 0.010 0.111 0.090 0.12 0.241 0 0.070-0.020 0.141-0.060 0.211-0.040 0.060-0.101 0.090-0.181 0.090-0.292-0.020-0.563-0.035-0.814-0.045-0.242 0-0.498 0-0.769 0s-0.528 0-0.769 0c-0.241 0.010-0.507 0.025-0.799 0.045-0.070 0-0.13-0.030-0.181-0.090-0.040-0.070-0.060-0.141-0.060-0.211 0.010-0.151 0.045-0.231 0.105-0.241 0.071-0.020 0.151-0.030 0.242-0.030 0.281 0 0.472-0.045 0.573-0.136 0.111-0.101 0.171-0.231 0.181-0.392 0.020-0.161 0.030-0.327 0.030-0.497v-3.196c0-0.332-0.075-0.603-0.226-0.814-0.141-0.211-0.322-0.367-0.543-0.467s-0.447-0.151-0.679-0.151c-0.342 0-0.643 0.065-0.904 0.196-0.261 0.121-0.472 0.261-0.633 0.422s-0.272 0.301-0.331 0.422v3.588c0 0.171 0.005 0.337 0.015 0.497 0.020 0.161 0.080 0.291 0.181 0.392 0.111 0.090 0.307 0.136 0.588 0.136 0.091 0 0.165 0.010 0.226 0.030 0.071 0.010 0.111 0.090 0.121 0.241 0 0.070-0.020 0.141-0.060 0.211-0.040 0.060-0.1 0.090-0.181 0.090-0.292-0.020-0.563-0.035-0.814-0.045-0.241 0-0.497 0-0.769 0s-0.528 0-0.769 0c-0.242 0.010-0.508 0.025-0.799 0.045z"></path>
<path fill="#fafafa" style="fill: var(--color2, #fafafa)" d="M65.685 12.38c-0.773 0-1.427-0.166-1.959-0.497-0.523-0.332-0.915-0.774-1.176-1.326s-0.392-1.156-0.392-1.809c0-0.442 0.075-0.869 0.226-1.281 0.161-0.422 0.387-0.804 0.678-1.146 0.292-0.352 0.643-0.628 1.055-0.829s0.879-0.301 1.402-0.301c0.924 0 1.618 0.241 2.080 0.724 0.472 0.472 0.744 1.075 0.814 1.809 0 0.352-0.1 0.583-0.301 0.693-0.191 0.111-0.443 0.166-0.754 0.166h-3.663c0 0.583 0.080 1.105 0.241 1.568 0.161 0.452 0.412 0.814 0.754 1.085 0.352 0.261 0.814 0.392 1.387 0.392 0.422 0 0.784-0.090 1.086-0.271s0.593-0.497 0.874-0.95c0.080-0.1 0.191-0.106 0.331-0.015 0.080 0.040 0.131 0.106 0.151 0.196 0.020 0.080 0.010 0.151-0.030 0.211-0.312 0.492-0.703 0.879-1.176 1.161s-1.015 0.422-1.628 0.422zM63.696 8.009h2.457c0.242 0 0.432-0.045 0.573-0.136 0.151-0.1 0.231-0.266 0.241-0.497 0-0.432-0.12-0.814-0.362-1.146-0.231-0.342-0.593-0.512-1.085-0.512-0.503 0-0.925 0.201-1.267 0.603-0.331 0.402-0.517 0.965-0.557 1.688z"></path>
<path fill="#fafafa" style="fill: var(--color2, #fafafa)" d="M57.918 12.245c-0.070 0-0.131-0.030-0.181-0.090-0.040-0.070-0.060-0.141-0.060-0.211 0.010-0.151 0.045-0.231 0.106-0.241 0.070-0.020 0.151-0.030 0.241-0.030 0.281 0 0.472-0.045 0.573-0.136 0.111-0.101 0.171-0.231 0.181-0.392 0.020-0.161 0.030-0.327 0.030-0.497v-7.356c0-0.181-0.010-0.347-0.030-0.497-0.010-0.161-0.065-0.286-0.166-0.377-0.1-0.1-0.291-0.151-0.573-0.151-0.090 0-0.176-0.010-0.256-0.030-0.070-0.030-0.106-0.121-0.106-0.271s0.080-0.241 0.241-0.271c0.462-0.070 0.814-0.141 1.055-0.211 0.251-0.070 0.442-0.131 0.573-0.181s0.246-0.080 0.347-0.090c0.080-0.010 0.146 0.005 0.196 0.045 0.060 0.040 0.090 0.121 0.090 0.241v9.15c0 0.171 0.005 0.337 0.015 0.497 0.020 0.161 0.080 0.291 0.181 0.392 0.11 0.090 0.307 0.136 0.588 0.136 0.091 0 0.166 0.010 0.226 0.030 0.071 0.010 0.111 0.090 0.121 0.241 0 0.070-0.020 0.141-0.060 0.211-0.040 0.060-0.1 0.090-0.181 0.090-0.292-0.020-0.563-0.035-0.814-0.045-0.241 0-0.497 0-0.769 0s-0.528 0-0.769 0c-0.241 0.010-0.507 0.025-0.799 0.045z"></path>
<path fill="#fafafa" style="fill: var(--color2, #fafafa)" d="M54.175 12.38c-0.774 0-1.427-0.166-1.96-0.497-0.523-0.332-0.914-0.774-1.176-1.326s-0.392-1.156-0.392-1.809c0-0.442 0.075-0.869 0.226-1.281 0.161-0.422 0.387-0.804 0.678-1.146 0.291-0.352 0.643-0.628 1.055-0.829s0.879-0.301 1.402-0.301c0.925 0 1.618 0.241 2.080 0.724 0.472 0.472 0.744 1.075 0.814 1.809 0 0.352-0.1 0.583-0.301 0.693-0.191 0.111-0.442 0.166-0.754 0.166h-3.663c0 0.583 0.080 1.105 0.241 1.568 0.161 0.452 0.412 0.814 0.754 1.085 0.352 0.261 0.814 0.392 1.387 0.392 0.422 0 0.784-0.090 1.085-0.271s0.593-0.497 0.874-0.95c0.080-0.1 0.191-0.106 0.332-0.015 0.080 0.040 0.131 0.106 0.151 0.196 0.020 0.080 0.010 0.151-0.030 0.211-0.312 0.492-0.703 0.879-1.176 1.161s-1.015 0.422-1.628 0.422zM52.185 8.009h2.457c0.241 0 0.432-0.045 0.573-0.136 0.151-0.1 0.231-0.266 0.241-0.497 0-0.432-0.121-0.814-0.362-1.146-0.231-0.342-0.593-0.512-1.085-0.512-0.502 0-0.925 0.201-1.266 0.603-0.332 0.402-0.517 0.965-0.558 1.688z"></path>
<path fill="#fafafa" style="fill: var(--color2, #fafafa)" d="M40.085 12.244c-0.1 0-0.171-0.035-0.211-0.106s-0.060-0.146-0.060-0.226c0.010-0.171 0.050-0.266 0.121-0.286s0.156-0.030 0.256-0.030c0.322 0 0.548-0.055 0.678-0.166 0.131-0.121 0.211-0.266 0.241-0.437 0.040-0.181 0.060-0.367 0.060-0.558v-5.984c0-0.191-0.020-0.372-0.060-0.543-0.030-0.181-0.111-0.327-0.241-0.437-0.131-0.121-0.357-0.181-0.678-0.181-0.101 0-0.186-0.010-0.256-0.030s-0.111-0.116-0.121-0.286c0-0.080 0.020-0.156 0.060-0.226s0.111-0.106 0.211-0.106c0.322 0.010 0.623 0.020 0.904 0.030s0.573 0.015 0.874 0.015c0.613 0 1.241-0.015 1.884-0.045 0.101 0 0.171 0.035 0.211 0.106s0.060 0.146 0.060 0.226c-0.010 0.171-0.050 0.266-0.121 0.286-0.060 0.020-0.146 0.030-0.256 0.030-0.312 0-0.538 0.060-0.678 0.181-0.131 0.111-0.211 0.256-0.241 0.437-0.030 0.171-0.050 0.352-0.060 0.543v2.668h4.733v-2.668c0-0.191-0.020-0.372-0.060-0.543-0.030-0.181-0.111-0.327-0.241-0.437-0.131-0.121-0.357-0.181-0.678-0.181-0.101 0-0.191-0.010-0.271-0.030-0.070-0.020-0.111-0.116-0.121-0.286 0-0.080 0.020-0.156 0.060-0.226 0.050-0.070 0.121-0.106 0.211-0.106 0.653 0.030 1.281 0.045 1.884 0.045 0.301 0 0.593-0.005 0.874-0.015 0.291-0.010 0.598-0.020 0.919-0.030 0.090 0 0.156 0.035 0.196 0.106 0.050 0.070 0.075 0.146 0.075 0.226-0.010 0.171-0.050 0.266-0.121 0.286s-0.156 0.030-0.256 0.030c-0.312 0-0.538 0.060-0.678 0.181-0.141 0.111-0.226 0.256-0.256 0.437-0.030 0.171-0.050 0.352-0.060 0.543v5.984c0.010 0.191 0.030 0.377 0.060 0.558 0.030 0.171 0.116 0.317 0.256 0.437 0.141 0.111 0.367 0.166 0.678 0.166 0.1 0 0.186 0.010 0.256 0.030s0.111 0.116 0.121 0.286c0 0.080-0.025 0.156-0.075 0.226-0.040 0.070-0.106 0.106-0.196 0.106-0.322-0.020-0.628-0.035-0.919-0.045-0.291 0-0.588 0-0.889 0-0.593 0-1.216 0.015-1.869 0.045-0.090 0-0.161-0.035-0.211-0.106-0.040-0.070-0.060-0.146-0.060-0.226 0.010-0.171 0.050-0.266 0.121-0.286 0.080-0.020 0.171-0.030 0.271-0.030 0.322 0 0.548-0.055 0.678-0.166 0.131-0.121 0.211-0.266 0.241-0.437 0.040-0.181 0.060-0.367 0.060-0.558v-2.668h-4.733v2.668c0.010 0.191 0.030 0.377 0.060 0.558 0.030 0.171 0.111 0.317 0.241 0.437 0.141 0.111 0.367 0.166 0.678 0.166 0.111 0 0.196 0.010 0.256 0.030 0.070 0.020 0.111 0.116 0.121 0.286 0 0.080-0.020 0.156-0.060 0.226s-0.111 0.106-0.211 0.106c-0.643-0.030-1.266-0.045-1.869-0.045-0.301 0-0.598 0-0.889 0-0.281 0.010-0.583 0.025-0.904 0.045z"></path>
<path fill="#fafafa" style="fill: var(--color2, #fafafa)" d="M85.918 28.505c-0.525 0-0.947-0.151-1.266-0.452-0.31-0.301-0.465-0.663-0.465-1.085 0-0.439 0.112-0.784 0.336-1.034 0.232-0.25 0.534-0.435 0.904-0.556 0.379-0.121 0.788-0.202 1.227-0.245 0.448-0.043 0.883-0.078 1.305-0.103v-1.021c0-0.405-0.103-0.719-0.31-0.943-0.199-0.233-0.539-0.349-1.021-0.349-0.241 0-0.469 0.078-0.685 0.233-0.207 0.155-0.31 0.379-0.31 0.672 0 0.138 0.034 0.254 0.104 0.349s0.138 0.168 0.207 0.22 0.103 0.086 0.103 0.103c0 0.034-0.051 0.099-0.155 0.194-0.095 0.086-0.228 0.129-0.4 0.129-0.267 0-0.474-0.099-0.62-0.297s-0.22-0.418-0.22-0.659c0-0.327 0.099-0.586 0.297-0.775 0.207-0.19 0.47-0.327 0.789-0.413s0.641-0.129 0.968-0.129c0.388 0 0.763 0.047 1.124 0.142 0.371 0.095 0.672 0.276 0.904 0.543 0.242 0.267 0.362 0.668 0.362 1.202v3.010c0.009 0.086 0.030 0.189 0.065 0.31s0.099 0.228 0.194 0.323c0.104 0.086 0.242 0.129 0.414 0.129 0.060 0 0.107 0.013 0.142 0.039 0.034 0.017 0.051 0.073 0.051 0.168 0 0.078-0.043 0.138-0.129 0.181s-0.185 0.073-0.297 0.090c-0.112 0.017-0.207 0.026-0.284 0.026-0.319 0-0.603-0.090-0.853-0.271-0.25-0.189-0.396-0.448-0.44-0.775-0.19 0.345-0.473 0.607-0.853 0.788-0.371 0.172-0.767 0.258-1.189 0.258zM86.331 27.807c0.293 0 0.56-0.073 0.801-0.22 0.249-0.146 0.447-0.345 0.594-0.594 0.155-0.258 0.232-0.543 0.232-0.853v-0.736c-0.887 0.060-1.52 0.202-1.899 0.426s-0.568 0.59-0.568 1.098c0 0.586 0.28 0.879 0.84 0.879z"></path>
<path fill="#fafafa" style="fill: var(--color2, #fafafa)" d="M80.202 28.479c-0.216-0.474-0.431-0.991-0.646-1.55s-0.426-1.107-0.633-1.641c-0.207-0.534-0.405-0.999-0.594-1.395-0.138-0.319-0.272-0.543-0.401-0.672-0.129-0.138-0.323-0.224-0.581-0.258-0.112-0.017-0.189-0.034-0.232-0.052-0.034-0.017-0.056-0.082-0.065-0.194-0.008-0.146 0.030-0.224 0.117-0.233 0.095-0.017 0.207-0.030 0.336-0.039 0.534-0.026 0.952 0.052 1.253 0.233s0.547 0.487 0.737 0.917c0.12 0.267 0.254 0.599 0.4 0.995 0.155 0.396 0.315 0.797 0.478 1.202s0.323 0.771 0.478 1.098h0.039l1.279-3.385c0.086-0.25 0.091-0.405 0.013-0.465s-0.246-0.090-0.504-0.090c-0.077 0-0.142-0.004-0.194-0.013-0.051-0.017-0.082-0.090-0.091-0.22 0-0.052 0.013-0.108 0.039-0.168 0.034-0.060 0.082-0.090 0.142-0.090 0.25 0.009 0.465 0.017 0.646 0.026s0.383 0.013 0.607 0.013c0.155 0 0.28 0 0.374 0 0.095-0.009 0.194-0.013 0.298-0.013 0.103-0.009 0.237-0.017 0.4-0.026 0.069 0 0.117 0.030 0.142 0.090 0.034 0.060 0.052 0.116 0.052 0.168-0.008 0.129-0.043 0.202-0.103 0.22-0.052 0.009-0.112 0.013-0.181 0.013-0.284 0-0.513 0.052-0.685 0.155-0.164 0.103-0.305 0.306-0.426 0.607 0 0-0.048 0.116-0.142 0.349-0.086 0.224-0.202 0.517-0.348 0.879s-0.302 0.745-0.466 1.15c-0.164 0.405-0.323 0.788-0.478 1.15-0.146 0.362-0.267 0.659-0.362 0.891s-0.146 0.349-0.155 0.349h-0.542z"></path>
<path fill="#fafafa" style="fill: var(--color2, #fafafa)" d="M74.355 28.505c-0.663 0-1.223-0.142-1.68-0.426-0.448-0.284-0.784-0.663-1.008-1.137s-0.336-0.991-0.336-1.55c0-0.379 0.065-0.745 0.194-1.098 0.138-0.362 0.331-0.689 0.581-0.982 0.249-0.301 0.551-0.538 0.904-0.711s0.754-0.258 1.202-0.258c0.792 0 1.387 0.207 1.783 0.62 0.405 0.405 0.637 0.922 0.697 1.55 0 0.301-0.086 0.5-0.258 0.594-0.164 0.095-0.379 0.142-0.646 0.142h-3.14c0 0.5 0.069 0.948 0.207 1.344 0.138 0.388 0.353 0.698 0.646 0.93 0.301 0.224 0.697 0.336 1.188 0.336 0.362 0 0.672-0.077 0.93-0.233s0.508-0.426 0.749-0.814c0.069-0.086 0.164-0.090 0.284-0.013 0.069 0.034 0.112 0.090 0.129 0.168 0.017 0.069 0.008 0.129-0.026 0.181-0.267 0.422-0.603 0.754-1.008 0.995s-0.87 0.362-1.395 0.362zM72.649 24.758h2.106c0.207 0 0.371-0.039 0.491-0.116 0.129-0.086 0.198-0.228 0.207-0.426 0-0.37-0.103-0.698-0.31-0.982-0.198-0.293-0.508-0.439-0.93-0.439-0.431 0-0.793 0.172-1.086 0.517-0.284 0.345-0.444 0.827-0.478 1.447z"></path>
<path fill="#fafafa" style="fill: var(--color2, #fafafa)" d="M65.997 28.388c-0.060 0-0.112-0.026-0.155-0.078-0.034-0.060-0.051-0.121-0.051-0.181 0.017-0.129 0.051-0.198 0.103-0.207 0.052-0.017 0.121-0.026 0.207-0.026 0.242 0 0.405-0.039 0.491-0.116 0.086-0.086 0.133-0.198 0.142-0.336 0.017-0.138 0.026-0.28 0.026-0.426v-2.959c0-0.155-0.008-0.297-0.026-0.426-0.008-0.138-0.056-0.245-0.142-0.323-0.086-0.086-0.25-0.129-0.491-0.129-0.077 0-0.15-0.009-0.219-0.026-0.060-0.026-0.091-0.103-0.091-0.233s0.069-0.207 0.207-0.233c0.396-0.060 0.698-0.121 0.904-0.181 0.216-0.060 0.375-0.112 0.478-0.155 0.112-0.043 0.211-0.069 0.297-0.078 0.069-0.009 0.125 0.004 0.168 0.039 0.052 0.034 0.078 0.103 0.078 0.207v0.801h0.039c0.293-0.284 0.594-0.517 0.904-0.698 0.31-0.19 0.594-0.284 0.853-0.284 0.302 0 0.53 0.112 0.685 0.336 0.164 0.224 0.246 0.461 0.246 0.711 0 0.215-0.069 0.426-0.207 0.633-0.138 0.198-0.345 0.297-0.621 0.297-0.138 0-0.249-0.026-0.336-0.078-0.077-0.060-0.121-0.103-0.129-0.129 0-0.017 0.039-0.069 0.117-0.155 0.086-0.086 0.129-0.194 0.129-0.323 0-0.155-0.043-0.28-0.129-0.375-0.078-0.095-0.185-0.142-0.323-0.142-0.147 0-0.336 0.073-0.569 0.22-0.224 0.146-0.439 0.323-0.646 0.53v3.153c0 0.146 0.004 0.289 0.013 0.426 0.017 0.138 0.069 0.25 0.155 0.336 0.095 0.078 0.263 0.116 0.504 0.116 0.077 0 0.142 0.009 0.194 0.026 0.060 0.009 0.095 0.078 0.103 0.207 0 0.060-0.017 0.121-0.052 0.181-0.034 0.052-0.086 0.078-0.155 0.078-0.25-0.017-0.482-0.030-0.698-0.039-0.207 0-0.426 0-0.659 0s-0.452 0-0.659 0c-0.207 0.009-0.435 0.021-0.685 0.039z"></path>
<path fill="#fafafa" style="fill: var(--color2, #fafafa)" d="M62.238 28.388c-0.060 0-0.112-0.026-0.155-0.078-0.034-0.060-0.052-0.121-0.052-0.181 0.017-0.129 0.052-0.198 0.103-0.207 0.052-0.017 0.121-0.026 0.207-0.026 0.241 0 0.405-0.039 0.491-0.116 0.086-0.086 0.133-0.198 0.142-0.336 0.017-0.138 0.026-0.28 0.026-0.426v-2.959c0-0.155-0.008-0.297-0.026-0.426-0.008-0.138-0.056-0.245-0.142-0.323-0.086-0.086-0.25-0.129-0.491-0.129-0.078 0-0.151-0.009-0.22-0.026-0.060-0.026-0.091-0.103-0.091-0.233s0.069-0.207 0.207-0.233c0.396-0.060 0.697-0.121 0.904-0.181 0.215-0.060 0.379-0.112 0.491-0.155s0.211-0.069 0.297-0.078c0.069-0.009 0.125 0.004 0.168 0.039 0.052 0.034 0.078 0.103 0.078 0.207v4.496c0 0.146 0.004 0.289 0.013 0.426 0.017 0.138 0.069 0.25 0.155 0.336 0.095 0.078 0.263 0.116 0.504 0.116 0.078 0 0.142 0.009 0.194 0.026 0.060 0.009 0.095 0.078 0.104 0.207 0 0.060-0.017 0.121-0.052 0.181-0.034 0.052-0.086 0.078-0.155 0.078-0.25-0.017-0.482-0.030-0.697-0.039-0.207 0-0.427 0-0.659 0s-0.452 0-0.659 0c-0.207 0.009-0.435 0.021-0.685 0.039zM63.516 20.843c-0.241 0-0.444-0.073-0.607-0.22-0.164-0.155-0.245-0.345-0.245-0.569 0-0.198 0.099-0.375 0.297-0.53s0.422-0.233 0.672-0.233c0.215 0 0.392 0.078 0.53 0.233 0.138 0.146 0.207 0.336 0.207 0.569 0 0.207-0.082 0.383-0.246 0.53s-0.366 0.22-0.607 0.22z"></path>
<path fill="#fafafa" style="fill: var(--color2, #fafafa)" d="M57.916 31.166c-1.817 0-2.726-0.517-2.726-1.55 0-0.284 0.090-0.538 0.271-0.762 0.181-0.215 0.422-0.323 0.724-0.323 0.198 0 0.362 0.052 0.491 0.155 0.129 0.112 0.194 0.19 0.194 0.233 0 0.017-0.034 0.056-0.103 0.116-0.060 0.060-0.125 0.142-0.194 0.245-0.060 0.103-0.090 0.241-0.090 0.413 0 0.663 0.569 0.995 1.706 0.995 0.646 0 1.146-0.112 1.499-0.336 0.362-0.224 0.543-0.564 0.543-1.021 0-0.25-0.082-0.439-0.245-0.569-0.155-0.129-0.366-0.22-0.633-0.271-0.258-0.052-0.547-0.086-0.866-0.103-0.319-0.009-0.642-0.017-0.969-0.026-0.319-0.009-0.616-0.034-0.892-0.078-0.301-0.052-0.556-0.151-0.762-0.297-0.198-0.155-0.297-0.405-0.297-0.749 0-0.319 0.112-0.594 0.336-0.827 0.233-0.241 0.577-0.362 1.034-0.362-0.551-0.215-0.922-0.478-1.111-0.788-0.181-0.31-0.271-0.629-0.271-0.956 0-0.37 0.103-0.702 0.31-0.995 0.215-0.301 0.508-0.538 0.879-0.711 0.379-0.181 0.814-0.271 1.305-0.271 0.241 0 0.491 0.022 0.749 0.065 0.267 0.034 0.495 0.099 0.685 0.194l1.77-0.336c0.094-0.009 0.159 0.021 0.193 0.090s0.052 0.142 0.052 0.22c0 0.112-0.017 0.224-0.052 0.336-0.034 0.103-0.081 0.155-0.142 0.155l-1.279-0.052v0.026c0.146 0.146 0.271 0.34 0.375 0.581s0.155 0.469 0.155 0.685c0 0.413-0.121 0.771-0.362 1.072-0.233 0.301-0.534 0.534-0.904 0.698-0.362 0.155-0.741 0.233-1.137 0.233h-0.569c-0.448 0-0.775 0.043-0.982 0.129-0.198 0.086-0.297 0.228-0.297 0.426 0 0.155 0.052 0.276 0.155 0.362 0.112 0.078 0.31 0.125 0.594 0.142l1.77 0.065c0.922 0.034 1.576 0.181 1.964 0.439 0.396 0.258 0.595 0.642 0.595 1.15 0 0.456-0.147 0.844-0.44 1.163-0.284 0.327-0.689 0.573-1.215 0.736-0.517 0.172-1.12 0.258-1.809 0.258zM58.045 25.921c0.396 0 0.719-0.138 0.969-0.413 0.25-0.284 0.375-0.689 0.375-1.215 0-0.482-0.129-0.861-0.388-1.137-0.25-0.284-0.573-0.426-0.969-0.426-0.379 0-0.698 0.138-0.956 0.413-0.25 0.267-0.375 0.642-0.375 1.124 0 0.525 0.125 0.935 0.375 1.227 0.258 0.284 0.581 0.426 0.969 0.426z"></path>
<path fill="#fafafa" style="fill: var(--color2, #fafafa)" d="M51.909 28.505c-0.663 0-1.223-0.142-1.68-0.426-0.448-0.284-0.784-0.663-1.008-1.137s-0.336-0.991-0.336-1.55c0-0.379 0.065-0.745 0.194-1.098 0.138-0.362 0.332-0.689 0.581-0.982 0.25-0.301 0.551-0.538 0.904-0.711s0.754-0.258 1.202-0.258c0.792 0 1.387 0.207 1.783 0.62 0.405 0.405 0.637 0.922 0.698 1.55 0 0.301-0.086 0.5-0.258 0.594-0.164 0.095-0.379 0.142-0.646 0.142h-3.14c0 0.5 0.069 0.948 0.207 1.344 0.138 0.388 0.353 0.698 0.646 0.93 0.301 0.224 0.698 0.336 1.189 0.336 0.362 0 0.672-0.077 0.93-0.233s0.508-0.426 0.749-0.814c0.069-0.086 0.164-0.090 0.284-0.013 0.069 0.034 0.112 0.090 0.129 0.168 0.017 0.069 0.009 0.129-0.026 0.181-0.267 0.422-0.603 0.754-1.008 0.995s-0.87 0.362-1.395 0.362zM50.203 24.758h2.106c0.207 0 0.37-0.039 0.491-0.116 0.129-0.086 0.198-0.228 0.207-0.426 0-0.37-0.103-0.698-0.31-0.982-0.198-0.293-0.508-0.439-0.93-0.439-0.431 0-0.792 0.172-1.085 0.517-0.284 0.345-0.444 0.827-0.478 1.447z"></path>
<path fill="#fafafa" style="fill: var(--color2, #fafafa)" d="M41.305 28.388c-0.060 0-0.112-0.026-0.155-0.078-0.034-0.060-0.052-0.121-0.052-0.181 0.017-0.129 0.052-0.198 0.103-0.207 0.052-0.017 0.121-0.026 0.207-0.026 0.241 0 0.405-0.039 0.491-0.116 0.086-0.086 0.133-0.198 0.142-0.336 0.017-0.138 0.026-0.28 0.026-0.426v-2.959c0-0.155-0.009-0.297-0.026-0.426-0.009-0.138-0.056-0.245-0.142-0.323-0.086-0.086-0.25-0.129-0.491-0.129-0.078 0-0.151-0.009-0.22-0.026-0.060-0.026-0.090-0.103-0.090-0.233s0.069-0.207 0.207-0.233c0.396-0.060 0.698-0.121 0.904-0.181 0.215-0.060 0.375-0.112 0.478-0.155 0.112-0.043 0.211-0.069 0.297-0.078 0.069-0.009 0.125 0.004 0.168 0.039 0.052 0.034 0.078 0.103 0.078 0.207v0.814h0.039c0.172-0.164 0.349-0.319 0.53-0.465 0.181-0.155 0.392-0.28 0.633-0.375 0.25-0.103 0.556-0.155 0.917-0.155 0.586 0 1.051 0.177 1.395 0.53s0.517 0.818 0.517 1.395v2.752c0 0.146 0.004 0.289 0.013 0.426 0.017 0.138 0.069 0.25 0.155 0.336 0.095 0.078 0.263 0.116 0.504 0.116 0.078 0 0.142 0.009 0.194 0.026 0.060 0.009 0.095 0.078 0.103 0.207 0 0.060-0.017 0.121-0.052 0.181-0.034 0.052-0.086 0.078-0.155 0.078-0.25-0.017-0.482-0.030-0.698-0.039-0.207 0-0.426 0-0.659 0s-0.452 0-0.659 0c-0.207 0.009-0.435 0.021-0.685 0.039-0.060 0-0.112-0.026-0.155-0.078-0.034-0.060-0.052-0.121-0.052-0.181 0.009-0.129 0.039-0.198 0.090-0.207 0.060-0.017 0.129-0.026 0.207-0.026 0.241 0 0.405-0.039 0.491-0.116 0.095-0.086 0.146-0.198 0.155-0.336 0.017-0.138 0.026-0.28 0.026-0.426v-2.739c0-0.284-0.065-0.517-0.194-0.698-0.121-0.181-0.276-0.314-0.465-0.401s-0.383-0.129-0.581-0.129c-0.293 0-0.551 0.056-0.775 0.168-0.224 0.103-0.405 0.224-0.543 0.362s-0.233 0.258-0.284 0.362v3.075c0 0.146 0.004 0.289 0.013 0.426 0.017 0.138 0.069 0.25 0.155 0.336 0.095 0.078 0.263 0.116 0.504 0.116 0.078 0 0.142 0.009 0.194 0.026 0.060 0.009 0.095 0.078 0.103 0.207 0 0.060-0.017 0.121-0.052 0.181-0.034 0.052-0.086 0.078-0.155 0.078-0.25-0.017-0.482-0.030-0.698-0.039-0.207 0-0.426 0-0.659 0s-0.452 0-0.659 0c-0.207 0.009-0.435 0.021-0.685 0.039z"></path>
<path fill="#fafafa" style="fill: var(--color2, #fafafa)" d="M37.206 28.608c-0.896 0-1.585-0.155-2.067-0.465-0.482-0.319-0.724-0.784-0.724-1.395 0-0.31 0.103-0.564 0.31-0.762 0.215-0.207 0.491-0.31 0.827-0.31 0.224 0.009 0.379 0.065 0.465 0.168 0.095 0.103 0.142 0.181 0.142 0.233 0 0.017-0.039 0.047-0.116 0.090-0.078 0.034-0.155 0.103-0.233 0.207-0.078 0.095-0.116 0.245-0.116 0.452 0 0.388 0.121 0.698 0.362 0.93 0.241 0.224 0.624 0.336 1.15 0.336 0.37 0 0.685-0.069 0.943-0.207 0.267-0.146 0.469-0.332 0.607-0.556 0.138-0.233 0.207-0.469 0.207-0.711 0-0.362-0.103-0.659-0.31-0.892s-0.478-0.431-0.814-0.594c-0.327-0.172-0.676-0.336-1.047-0.491s-0.724-0.332-1.059-0.53c-0.327-0.198-0.599-0.444-0.814-0.736-0.215-0.301-0.327-0.676-0.336-1.124-0.009-0.543 0.108-0.982 0.349-1.318 0.241-0.345 0.577-0.594 1.008-0.749 0.431-0.164 0.909-0.245 1.434-0.245 0.388 0 0.767 0.056 1.137 0.168 0.379 0.112 0.689 0.289 0.93 0.53 0.25 0.233 0.375 0.543 0.375 0.93 0 0.31-0.108 0.569-0.323 0.775-0.207 0.198-0.478 0.297-0.814 0.297-0.224-0.017-0.383-0.073-0.478-0.168-0.086-0.103-0.129-0.181-0.129-0.233 0-0.026 0.052-0.056 0.155-0.090 0.103-0.043 0.207-0.112 0.31-0.207 0.103-0.103 0.155-0.254 0.155-0.452 0-0.327-0.125-0.577-0.375-0.749-0.25-0.181-0.56-0.271-0.93-0.271-0.56 0-0.969 0.134-1.227 0.4-0.25 0.258-0.375 0.551-0.375 0.879 0 0.319 0.086 0.577 0.258 0.775s0.431 0.392 0.775 0.581c0.388 0.207 0.78 0.401 1.176 0.581 0.396 0.172 0.762 0.366 1.098 0.581 0.344 0.215 0.62 0.487 0.827 0.814 0.207 0.319 0.31 0.732 0.31 1.24 0 0.439-0.138 0.831-0.413 1.176-0.267 0.345-0.629 0.616-1.085 0.814s-0.965 0.297-1.525 0.297z"></path>
<path fill="#fafafa" style="fill: var(--color2, #fafafa)" d="M5.924 18.416c1.638-4.054 5.559-8.486 6.755-9.783v-1.387l-0.351 0.362c-0.253 0.261-4.854 5.044-7.006 9.777-0.177 0.389-0.336 0.776-0.476 1.162-0.384 1.059-0.619 2.097-0.619 3.061 0 6.64 7.377 7.877 7.451 7.889l0.563 0.088-0.988-1.146c-1.626-0.409-6.058-1.969-6.058-6.832 0-0.684 0.134-1.417 0.366-2.175 0.050-0.166 0.322-0.883 0.363-1.016z"></path>
<path fill="#fafafa" style="fill: var(--color2, #fafafa)" d="M1.055 19.257c0-2.017 0.371-4.264 1.987-6.793 0.122-0.965 0.359-1.911 0.759-2.803-3.076 3.433-3.801 7.132-3.801 9.597 0 8.789 7.767 12.743 13.283 12.743v-0.991c-5.078-0-12.228-3.646-12.228-11.752z"></path>
<path fill="#fafafa" style="fill: var(--color2, #fafafa)" d="M12.679 1.245v-1.245l-0.314 0.254c-0.089 0.072-2.2 1.787-4.345 4.269-2.918 3.376-4.397 6.402-4.397 8.995 0 0.541 0.020 1.083 0.074 1.622 0.047 0.465 0.118 0.929 0.228 1.384 0.097 0.403 0.225 0.8 0.391 1.183 0.112 0.259 0.234 0.51 0.388 0.748 0.144 0.222 0.304 0.433 0.478 0.634 0.37 0.427 0.804 0.77 1.259 1.107 0.233 0.173 0.475 0.352 0.696 0.54 2.516 2.138 3.924 4.791 4.098 7.703l1 1.148-0.001-0.557c-0.008-3.424-1.547-6.538-4.449-9.005-0.246-0.209-0.5-0.398-0.747-0.58-0.22-0.163-0.44-0.326-0.649-0.502-0.102-0.086-0.201-0.175-0.296-0.268-0.047-0.046-0.092-0.094-0.136-0.142-0.154-0.17-0.291-0.356-0.413-0.549-0.125-0.198-0.217-0.404-0.311-0.616-0.432-0.98-0.63-2.21-0.63-3.848-0-5.048 6.55-10.963 8.076-12.272z"></path>
<path fill="#fafafa" style="fill: var(--color2, #fafafa)" d="M19.434 18.416c-1.638-4.054-5.559-8.486-6.755-9.783v-1.387l0.351 0.362c0.253 0.261 4.854 5.044 7.006 9.777 0.177 0.389 0.336 0.776 0.476 1.162 0.384 1.059 0.619 2.097 0.619 3.061 0 6.64-7.377 7.877-7.451 7.889l-0.563 0.088 0.988-1.146c1.626-0.409 6.058-1.969 6.058-6.832 0-0.684-0.134-1.417-0.366-2.175-0.050-0.166-0.322-0.883-0.363-1.016z"></path>
<path fill="#fafafa" style="fill: var(--color2, #fafafa)" d="M24.907 19.257c0-2.017-0.371-4.264-1.987-6.793-0.122-0.965-0.359-1.911-0.759-2.803 3.076 3.433 3.801 7.132 3.801 9.597 0 8.789-7.767 12.743-13.283 12.743v-0.991c5.078-0 12.228-3.646 12.228-11.752z"></path>
<path fill="#fafafa" style="fill: var(--color2, #fafafa)" d="M12.679 1.245v-1.245l0.314 0.254c0.089 0.072 2.2 1.787 4.345 4.269 2.918 3.376 4.397 6.402 4.397 8.995 0 0.541-0.020 1.083-0.074 1.622-0.047 0.465-0.118 0.929-0.228 1.384-0.097 0.403-0.225 0.8-0.391 1.183-0.112 0.259-0.234 0.51-0.388 0.748-0.144 0.222-0.304 0.433-0.478 0.634-0.37 0.427-0.804 0.77-1.259 1.107-0.233 0.173-0.474 0.352-0.696 0.54-2.516 2.138-3.924 4.791-4.098 7.703l-1 1.148 0.001-0.557c0.008-3.424 1.547-6.538 4.449-9.005 0.246-0.209 0.5-0.398 0.747-0.58 0.22-0.163 0.44-0.326 0.649-0.502 0.102-0.086 0.201-0.175 0.296-0.268 0.047-0.046 0.092-0.094 0.136-0.142 0.154-0.17 0.291-0.356 0.413-0.549 0.125-0.198 0.218-0.404 0.311-0.616 0.432-0.98 0.63-2.21 0.63-3.848 0-5.048-6.55-10.963-8.076-12.272z"></path>
</symbol>
<symbol id="icon-inst-icon" viewBox="0 0 31 32">
<path fill="#fafafa" style="fill: var(--color2, #fafafa)" d="M15.385 3.386c4.111 0 4.597 0.018 6.214 0.090 1.502 0.066 2.314 0.318 2.855 0.529 0.715 0.276 1.232 0.613 1.767 1.148 0.541 0.541 0.871 1.052 1.148 1.767 0.21 0.541 0.463 1.358 0.529 2.855 0.072 1.623 0.090 2.109 0.090 6.214 0 4.111-0.018 4.597-0.090 6.214-0.066 1.502-0.319 2.314-0.529 2.855-0.276 0.715-0.613 1.232-1.148 1.767-0.541 0.541-1.052 0.872-1.767 1.148-0.541 0.21-1.358 0.463-2.855 0.529-1.623 0.072-2.109 0.090-6.214 0.090-4.111 0-4.597-0.018-6.214-0.090-1.502-0.066-2.314-0.319-2.855-0.529-0.715-0.276-1.232-0.613-1.767-1.148-0.541-0.541-0.871-1.052-1.148-1.767-0.21-0.541-0.463-1.358-0.529-2.855-0.072-1.623-0.090-2.109-0.090-6.214 0-4.111 0.018-4.597 0.090-6.214 0.066-1.502 0.319-2.314 0.529-2.855 0.276-0.715 0.613-1.232 1.148-1.767 0.541-0.541 1.052-0.871 1.767-1.148 0.541-0.21 1.358-0.463 2.855-0.529 1.617-0.072 2.103-0.090 6.214-0.090zM15.385 0.615c-4.177 0-4.7 0.018-6.34 0.090-1.635 0.072-2.758 0.337-3.732 0.715-1.016 0.397-1.875 0.919-2.728 1.779-0.859 0.853-1.382 1.713-1.779 2.722-0.379 0.98-0.643 2.097-0.715 3.732-0.072 1.647-0.090 2.169-0.090 6.346s0.018 4.7 0.090 6.34c0.072 1.635 0.337 2.758 0.715 3.732 0.397 1.016 0.919 1.875 1.779 2.728 0.853 0.853 1.713 1.382 2.722 1.773 0.98 0.379 2.097 0.643 3.732 0.715 1.641 0.072 2.163 0.090 6.34 0.090s4.7-0.018 6.34-0.090c1.635-0.072 2.758-0.337 3.732-0.715 1.010-0.391 1.869-0.919 2.722-1.773s1.382-1.713 1.773-2.722c0.379-0.98 0.643-2.097 0.715-3.732 0.072-1.641 0.090-2.164 0.090-6.34s-0.018-4.7-0.090-6.34c-0.072-1.635-0.337-2.758-0.715-3.732-0.379-1.022-0.902-1.881-1.761-2.734-0.853-0.853-1.713-1.382-2.722-1.773-0.98-0.379-2.097-0.643-3.732-0.715-1.647-0.078-2.169-0.096-6.346-0.096z"></path>
<path fill="#fafafa" style="fill: var(--color2, #fafafa)" d="M15.385 8.097c-4.363 0-7.903 3.54-7.903 7.903s3.54 7.903 7.903 7.903c4.363 0 7.903-3.54 7.903-7.903s-3.54-7.903-7.903-7.903zM15.385 21.126c-2.831 0-5.126-2.296-5.126-5.126s2.296-5.126 5.126-5.126c2.831 0 5.126 2.296 5.126 5.126s-2.296 5.126-5.126 5.126z"></path>
<path fill="#fafafa" style="fill: var(--color2, #fafafa)" d="M25.445 7.785c0 1.022-0.829 1.845-1.845 1.845-1.022 0-1.845-0.829-1.845-1.845 0-1.022 0.829-1.845 1.845-1.845s1.845 0.829 1.845 1.845z"></path>
</symbol>
<symbol id="icon-mail-icon" viewBox="0 0 33 32">
<path fill="#fafafa" style="fill: var(--color2, #fafafa)" d="M30 5.333h-26.667v21.333h26.667v-21.333zM27.333 10.667l-10.667 6.667-10.667-6.667v-2.667l10.667 6.667 10.667-6.667v2.667z"></path>
</symbol>
<symbol id="icon-map-icon" viewBox="0 0 33 32">
<path fill="#fafafa" style="fill: var(--color2, #fafafa)" d="M17.333 2.667c-3.005 0.003-5.885 1.163-8.010 3.226s-3.32 4.858-3.323 7.774c-0.004 2.383 0.798 4.702 2.283 6.6 0 0 0.309 0.395 0.36 0.452l8.691 9.948 8.695-9.953c0.045-0.053 0.355-0.447 0.355-0.447l0.001-0.003c1.484-1.897 2.286-4.215 2.282-6.597-0.004-2.916-1.199-5.712-3.323-7.774s-5.005-3.222-8.010-3.226zM17.333 17.667c-0.815 0-1.612-0.235-2.29-0.674s-1.206-1.064-1.518-1.795c-0.312-0.731-0.394-1.535-0.235-2.311s0.551-1.489 1.128-2.048 1.311-0.94 2.11-1.095c0.799-0.154 1.628-0.075 2.381 0.228s1.397 0.815 1.85 1.473c0.453 0.658 0.695 1.431 0.695 2.222-0.001 1.060-0.436 2.077-1.209 2.827s-1.82 1.172-2.913 1.173z"></path>
</symbol>
<symbol id="icon-pen-icon" viewBox="0 0 47 32">
<path fill="none" stroke="#fafafa" style="stroke: var(--color2, #fafafa)" stroke-linejoin="miter" stroke-linecap="butt" stroke-miterlimit="4" stroke-width="0.7273" d="M2.909 0.364h40.727c1.406 0 2.545 1.14 2.545 2.545v26.182c0 1.406-1.14 2.545-2.545 2.545h-40.727c-1.406 0-2.545-1.14-2.545-2.545v-26.182c0-1.406 1.14-2.545 2.545-2.545z"></path>
<path fill="#fafafa" style="fill: var(--color2, #fafafa)" d="M26.34 8.705l-5.675 5.675c-2.375 2.381-4.173 5.273-5.257 8.456-0.052 0.151-0.060 0.313-0.024 0.468s0.115 0.297 0.228 0.409l0.003 0.003c0.079 0.079 0.172 0.142 0.275 0.185s0.214 0.065 0.325 0.065c0.094-0 0.187-0.016 0.276-0.046 3.183-1.084 6.075-2.882 8.456-5.257l5.675-5.675c0.568-0.568 0.887-1.338 0.887-2.141s-0.319-1.573-0.887-2.141c-0.281-0.281-0.615-0.504-0.982-0.656s-0.761-0.231-1.159-0.231c-0.803 0-1.573 0.319-2.141 0.887zM24.177 17.891c-2.145 2.139-4.728 3.788-7.572 4.832 1.044-2.844 2.693-5.427 4.832-7.572l3.381-3.38 2.74 2.74-3.381 3.381zM29.851 12.216l-1.523 1.523-2.74-2.74 1.523-1.523c0.18-0.18 0.393-0.323 0.629-0.421s0.487-0.148 0.742-0.148c0.255-0 0.507 0.050 0.742 0.147s0.449 0.24 0.629 0.42 0.323 0.394 0.42 0.629c0.097 0.235 0.147 0.488 0.147 0.742s-0.051 0.507-0.148 0.742c-0.098 0.235-0.241 0.449-0.421 0.629z"></path>
</symbol>
<symbol id="icon-phone-icon" viewBox="0 0 33 32">
<path fill="#fafafa" style="fill: var(--color2, #fafafa)" d="M27.336 14.667h2.664c0-6.841-5.158-12-12-12v2.667c5.41 0 9.336 3.924 9.336 9.333z"></path>
<path fill="#fafafa" style="fill: var(--color2, #fafafa)" d="M18.14 10.486c2.833 0 4.042 1.208 4.042 4.042h2.695c0-4.345-2.391-6.736-6.737-6.736v2.694zM22.751 17.819c-0.259-0.235-0.599-0.361-0.949-0.35s-0.681 0.157-0.925 0.408l-3.224 3.315c-0.776-0.148-2.336-0.635-3.942-2.236-1.606-1.607-2.092-3.171-2.237-3.942l3.313-3.225c0.251-0.244 0.398-0.575 0.408-0.925s-0.115-0.69-0.351-0.949l-4.978-5.474c-0.236-0.26-0.563-0.417-0.913-0.439s-0.695 0.093-0.961 0.322l-2.924 2.507c-0.233 0.234-0.372 0.545-0.391 0.874-0.020 0.337-0.406 8.315 5.781 14.504 5.397 5.396 12.158 5.79 14.020 5.79 0.272 0 0.439-0.008 0.484-0.011 0.329-0.018 0.64-0.158 0.873-0.392l2.506-2.925c0.228-0.266 0.344-0.611 0.322-0.961s-0.179-0.677-0.438-0.913l-5.475-4.979z"></path>
</symbol>
<symbol id="icon-qr-code" viewBox="0 0 32 32">
<path fill="#fff" style="fill: var(--color3, #fff)" d="M31.619 0h-31.111c-0.281 0-0.508 0.227-0.508 0.508v30.984c0 0.28 0.227 0.508 0.508 0.508h31.111c0.28 0 0.508-0.227 0.508-0.508v-30.984c0-0.281-0.227-0.508-0.508-0.508z"></path>
<path fill="#000" style="fill: var(--color4, #000)" d="M18.193 21.515h-0.852v0.849h0.852v-0.849z"></path>
<path fill="#000" style="fill: var(--color4, #000)" d="M21.601 21.515h-0.852v0.849h0.852v-0.849z"></path>
<path fill="#000" style="fill: var(--color4, #000)" d="M22.452 21.515h-0.852v0.849h0.852v-0.849z"></path>
<path fill="#000" style="fill: var(--color4, #000)" d="M24.156 21.515h-0.852v0.849h0.852v-0.849z"></path>
<path fill="#000" style="fill: var(--color4, #000)" d="M27.563 21.515h-0.852v0.849h0.852v-0.849z"></path>
<path fill="#000" style="fill: var(--color4, #000)" d="M29.267 21.515h-0.852v0.849h0.852v-0.849z"></path>
<path fill="#000" style="fill: var(--color4, #000)" d="M30.119 21.515h-0.852v0.849h0.852v-0.849z"></path>
<path fill="#000" style="fill: var(--color4, #000)" d="M7.971 22.364h-0.852v0.848h0.852v-0.848z"></path>
<path fill="#000" style="fill: var(--color4, #000)" d="M9.675 22.364h-0.852v0.848h0.852v-0.848z"></path>
<path fill="#000" style="fill: var(--color4, #000)" d="M12.23 22.364h-0.852v0.848h0.852v-0.848z"></path>
<path fill="#000" style="fill: var(--color4, #000)" d="M14.786 22.364h-0.852v0.848h0.852v-0.848z"></path>
<path fill="#000" style="fill: var(--color4, #000)" d="M15.638 22.364h-0.852v0.848h0.852v-0.848z"></path>
<path fill="#000" style="fill: var(--color4, #000)" d="M16.489 22.364h-0.852v0.848h0.852v-0.848z"></path>
<path fill="#000" style="fill: var(--color4, #000)" d="M17.341 22.364h-0.852v0.848h0.852v-0.848z"></path>
<path fill="#000" style="fill: var(--color4, #000)" d="M18.193 22.364h-0.852v0.848h0.852v-0.848z"></path>
<path fill="#000" style="fill: var(--color4, #000)" d="M19.045 22.364h-0.852v0.848h0.852v-0.848z"></path>
<path fill="#000" style="fill: var(--color4, #000)" d="M21.601 22.364h-0.852v0.848h0.852v-0.848z"></path>
<path fill="#000" style="fill: var(--color4, #000)" d="M23.304 22.364h-0.852v0.848h0.852v-0.848z"></path>
<path fill="#000" style="fill: var(--color4, #000)" d="M24.156 22.364h-0.852v0.848h0.852v-0.848z"></path>
<path fill="#000" style="fill: var(--color4, #000)" d="M25.008 22.364h-0.852v0.848h0.852v-0.848z"></path>
<path fill="#000" style="fill: var(--color4, #000)" d="M25.86 22.364h-0.852v0.848h0.852v-0.848z"></path>
<path fill="#000" style="fill: var(--color4, #000)" d="M26.712 22.364h-0.852v0.848h0.852v-0.848z"></path>
<path fill="#000" style="fill: var(--color4, #000)" d="M29.267 22.364h-0.852v0.848h0.852v-0.848z"></path>
<path fill="#000" style="fill: var(--color4, #000)" d="M30.119 22.364h-0.852v0.848h0.852v-0.848z"></path>
<path fill="#000" style="fill: var(--color4, #000)" d="M9.675 23.212h-0.852v0.849h0.852v-0.849z"></path>
<path fill="#000" style="fill: var(--color4, #000)" d="M10.526 23.212h-0.852v0.849h0.852v-0.849z"></path>
<path fill="#000" style="fill: var(--color4, #000)" d="M11.378 23.212h-0.852v0.849h0.852v-0.849z"></path>
<path fill="#000" style="fill: var(--color4, #000)" d="M13.934 23.212h-0.852v0.849h0.852v-0.849z"></path>
<path fill="#000" style="fill: var(--color4, #000)" d="M14.786 23.212h-0.852v0.849h0.852v-0.849z"></path>
<path fill="#000" style="fill: var(--color4, #000)" d="M15.638 23.212h-0.852v0.849h0.852v-0.849z"></path>
<path fill="#000" style="fill: var(--color4, #000)" d="M18.193 23.212h-0.852v0.849h0.852v-0.849z"></path>
<path fill="#000" style="fill: var(--color4, #000)" d="M19.045 23.212h-0.852v0.849h0.852v-0.849z"></path>
<path fill="#000" style="fill: var(--color4, #000)" d="M20.749 23.212h-0.852v0.849h0.852v-0.849z"></path>
<path fill="#000" style="fill: var(--color4, #000)" d="M21.601 23.212h-0.852v0.849h0.852v-0.849z"></path>
<path fill="#000" style="fill: var(--color4, #000)" d="M22.452 23.212h-0.852v0.849h0.852v-0.849z"></path>
<path fill="#000" style="fill: var(--color4, #000)" d="M23.304 23.212h-0.852v0.849h0.852v-0.849z"></path>
<path fill="#000" style="fill: var(--color4, #000)" d="M26.712 23.212h-0.852v0.849h0.852v-0.849z"></path>
<path fill="#000" style="fill: var(--color4, #000)" d="M28.415 23.212h-0.852v0.849h0.852v-0.849z"></path>
<path fill="#000" style="fill: var(--color4, #000)" d="M29.267 23.212h-0.852v0.849h0.852v-0.849z"></path>
<path fill="#000" style="fill: var(--color4, #000)" d="M30.119 23.212h-0.852v0.849h0.852v-0.849z"></path>
<path fill="#000" style="fill: var(--color4, #000)" d="M2.86 24.061h-0.852v0.849h0.852v-0.849z"></path>
<path fill="#000" style="fill: var(--color4, #000)" d="M3.712 24.061h-0.852v0.849h0.852v-0.849z"></path>
<path fill="#000" style="fill: var(--color4, #000)" d="M4.564 24.061h-0.852v0.849h0.852v-0.849z"></path>
<path fill="#000" style="fill: var(--color4, #000)" d="M5.415 24.061h-0.852v0.849h0.852v-0.849z"></path>
<path fill="#000" style="fill: var(--color4, #000)" d="M6.267 24.061h-0.852v0.849h0.852v-0.849z"></path>
<path fill="#000" style="fill: var(--color4, #000)" d="M7.119 24.061h-0.852v0.849h0.852v-0.849z"></path>
<path fill="#000" style="fill: var(--color4, #000)" d="M7.971 24.061h-0.852v0.849h0.852v-0.849z"></path>
<path fill="#000" style="fill: var(--color4, #000)" d="M9.675 24.061h-0.852v0.849h0.852v-0.849z"></path>
<path fill="#000" style="fill: var(--color4, #000)" d="M11.378 24.061h-0.852v0.849h0.852v-0.849z"></path>
<path fill="#000" style="fill: var(--color4, #000)" d="M13.082 24.061h-0.852v0.849h0.852v-0.849z"></path>
<path fill="#000" style="fill: var(--color4, #000)" d="M14.786 24.061h-0.852v0.849h0.852v-0.849z"></path>
<path fill="#000" style="fill: var(--color4, #000)" d="M15.638 24.061h-0.852v0.849h0.852v-0.849z"></path>
<path fill="#000" style="fill: var(--color4, #000)" d="M16.489 24.061h-0.852v0.849h0.852v-0.849z"></path>
<path fill="#000" style="fill: var(--color4, #000)" d="M19.897 24.061h-0.852v0.849h0.852v-0.849z"></path>
<path fill="#000" style="fill: var(--color4, #000)" d="M22.452 24.061h-0.852v0.849h0.852v-0.849z"></path>
<path fill="#000" style="fill: var(--color4, #000)" d="M23.304 24.061h-0.852v0.849h0.852v-0.849z"></path>
<path fill="#000" style="fill: var(--color4, #000)" d="M25.008 24.061h-0.852v0.849h0.852v-0.849z"></path>
<path fill="#000" style="fill: var(--color4, #000)" d="M26.712 24.061h-0.852v0.849h0.852v-0.849z"></path>
<path fill="#000" style="fill: var(--color4, #000)" d="M27.563 24.061h-0.852v0.849h0.852v-0.849z"></path>
<path fill="#000" style="fill: var(--color4, #000)" d="M28.415 24.061h-0.852v0.849h0.852v-0.849z"></path>
<path fill="#000" style="fill: var(--color4, #000)" d="M29.267 24.061h-0.852v0.849h0.852v-0.849z"></path>
<path fill="#000" style="fill: var(--color4, #000)" d="M2.86 24.909h-0.852v0.849h0.852v-0.849z"></path>
<path fill="#000" style="fill: var(--color4, #000)" d="M7.971 24.909h-0.852v0.849h0.852v-0.849z"></path>
<path fill="#000" style="fill: var(--color4, #000)" d="M9.675 24.909h-0.852v0.849h0.852v-0.849z"></path>
<path fill="#000" style="fill: var(--color4, #000)" d="M13.934 24.909h-0.852v0.849h0.852v-0.849z"></path>
<path fill="#000" style="fill: var(--color4, #000)" d="M18.193 24.909h-0.852v0.849h0.852v-0.849z"></path>
<path fill="#000" style="fill: var(--color4, #000)" d="M19.045 24.909h-0.852v0.849h0.852v-0.849z"></path>
<path fill="#000" style="fill: var(--color4, #000)" d="M20.749 24.909h-0.852v0.849h0.852v-0.849z"></path>
<path fill="#000" style="fill: var(--color4, #000)" d="M23.304 24.909h-0.852v0.849h0.852v-0.849z"></path>
<path fill="#000" style="fill: var(--color4, #000)" d="M26.712 24.909h-0.852v0.849h0.852v-0.849z"></path>
<path fill="#000" style="fill: var(--color4, #000)" d="M27.563 24.909h-0.852v0.849h0.852v-0.849z"></path>
<path fill="#000" style="fill: var(--color4, #000)" d="M28.415 24.909h-0.852v0.849h0.852v-0.849z"></path>
<path fill="#000" style="fill: var(--color4, #000)" d="M2.86 25.758h-0.852v0.849h0.852v-0.849z"></path>
<path fill="#000" style="fill: var(--color4, #000)" d="M4.564 25.758h-0.852v0.849h0.852v-0.849z"></path>
<path fill="#000" style="fill: var(--color4, #000)" d="M5.415 25.758h-0.852v0.849h0.852v-0.849z"></path>
<path fill="#000" style="fill: var(--color4, #000)" d="M6.267 25.758h-0.852v0.849h0.852v-0.849z"></path>
<path fill="#000" style="fill: var(--color4, #000)" d="M7.971 25.758h-0.852v0.849h0.852v-0.849z"></path>
<path fill="#000" style="fill: var(--color4, #000)" d="M9.675 25.758h-0.852v0.849h0.852v-0.849z"></path>
<path fill="#000" style="fill: var(--color4, #000)" d="M13.082 25.758h-0.852v0.849h0.852v-0.849z"></path>
<path fill="#000" style="fill: var(--color4, #000)" d="M14.786 25.758h-0.852v0.849h0.852v-0.849z"></path>
<path fill="#000" style="fill: var(--color4, #000)" d="M15.638 25.758h-0.852v0.849h0.852v-0.849z"></path>
<path fill="#000" style="fill: var(--color4, #000)" d="M16.489 25.758h-0.852v0.849h0.852v-0.849z"></path>
<path fill="#000" style="fill: var(--color4, #000)" d="M19.897 25.758h-0.852v0.849h0.852v-0.849z"></path>
<path fill="#000" style="fill: var(--color4, #000)" d="M23.304 25.758h-0.852v0.849h0.852v-0.849z"></path>
<path fill="#000" style="fill: var(--color4, #000)" d="M24.156 25.758h-0.852v0.849h0.852v-0.849z"></path>
<path fill="#000" style="fill: var(--color4, #000)" d="M25.008 25.758h-0.852v0.849h0.852v-0.849z"></path>
<path fill="#000" style="fill: var(--color4, #000)" d="M25.86 25.758h-0.852v0.849h0.852v-0.849z"></path>
<path fill="#000" style="fill: var(--color4, #000)" d="M26.712 25.758h-0.852v0.849h0.852v-0.849z"></path>
<path fill="#000" style="fill: var(--color4, #000)" d="M27.563 25.758h-0.852v0.849h0.852v-0.849z"></path>
<path fill="#000" style="fill: var(--color4, #000)" d="M28.415 25.758h-0.852v0.849h0.852v-0.849z"></path>
<path fill="#000" style="fill: var(--color4, #000)" d="M2.86 26.606h-0.852v0.849h0.852v-0.849z"></path>
<path fill="#000" style="fill: var(--color4, #000)" d="M4.564 26.606h-0.852v0.849h0.852v-0.849z"></path>
<path fill="#000" style="fill: var(--color4, #000)" d="M5.415 26.606h-0.852v0.849h0.852v-0.849z"></path>
<path fill="#000" style="fill: var(--color4, #000)" d="M6.267 26.606h-0.852v0.849h0.852v-0.849z"></path>
<path fill="#000" style="fill: var(--color4, #000)" d="M7.971 26.606h-0.852v0.849h0.852v-0.849z"></path>
<path fill="#000" style="fill: var(--color4, #000)" d="M9.675 26.606h-0.852v0.849h0.852v-0.849z"></path>
<path fill="#000" style="fill: var(--color4, #000)" d="M10.526 26.606h-0.852v0.849h0.852v-0.849z"></path>
<path fill="#000" style="fill: var(--color4, #000)" d="M11.378 26.606h-0.852v0.849h0.852v-0.849z"></path>
<path fill="#000" style="fill: var(--color4, #000)" d="M13.082 26.606h-0.852v0.849h0.852v-0.849z"></path>
<path fill="#000" style="fill: var(--color4, #000)" d="M13.934 26.606h-0.852v0.849h0.852v-0.849z"></path>
<path fill="#000" style="fill: var(--color4, #000)" d="M14.786 26.606h-0.852v0.849h0.852v-0.849z"></path>
<path fill="#000" style="fill: var(--color4, #000)" d="M17.341 26.606h-0.852v0.849h0.852v-0.849z"></path>
<path fill="#000" style="fill: var(--color4, #000)" d="M18.193 26.606h-0.852v0.849h0.852v-0.849z"></path>
<path fill="#000" style="fill: var(--color4, #000)" d="M19.897 26.606h-0.852v0.849h0.852v-0.849z"></path>
<path fill="#000" style="fill: var(--color4, #000)" d="M20.749 26.606h-0.852v0.849h0.852v-0.849z"></path>
<path fill="#000" style="fill: var(--color4, #000)" d="M25.008 26.606h-0.852v0.849h0.852v-0.849z"></path>
<path fill="#000" style="fill: var(--color4, #000)" d="M26.712 26.606h-0.852v0.849h0.852v-0.849z"></path>
<path fill="#000" style="fill: var(--color4, #000)" d="M27.563 26.606h-0.852v0.849h0.852v-0.849z"></path>
<path fill="#000" style="fill: var(--color4, #000)" d="M30.119 26.606h-0.852v0.849h0.852v-0.849z"></path>
<path fill="#000" style="fill: var(--color4, #000)" d="M2.86 27.455h-0.852v0.848h0.852v-0.848z"></path>
<path fill="#000" style="fill: var(--color4, #000)" d="M4.564 27.455h-0.852v0.848h0.852v-0.848z"></path>
<path fill="#000" style="fill: var(--color4, #000)" d="M5.415 27.455h-0.852v0.848h0.852v-0.848z"></path>
<path fill="#000" style="fill: var(--color4, #000)" d="M6.267 27.455h-0.852v0.848h0.852v-0.848z"></path>
<path fill="#000" style="fill: var(--color4, #000)" d="M7.971 27.455h-0.852v0.848h0.852v-0.848z"></path>
<path fill="#000" style="fill: var(--color4, #000)" d="M10.526 27.455h-0.852v0.848h0.852v-0.848z"></path>
<path fill="#000" style="fill: var(--color4, #000)" d="M17.341 27.455h-0.852v0.848h0.852v-0.848z"></path>
<path fill="#000" style="fill: var(--color4, #000)" d="M21.601 27.455h-0.852v0.848h0.852v-0.848z"></path>
<path fill="#000" style="fill: var(--color4, #000)" d="M24.156 27.455h-0.852v0.848h0.852v-0.848z"></path>
<path fill="#000" style="fill: var(--color4, #000)" d="M27.563 27.455h-0.852v0.848h0.852v-0.848z"></path>
<path fill="#000" style="fill: var(--color4, #000)" d="M28.415 27.455h-0.852v0.848h0.852v-0.848z"></path>
<path fill="#000" style="fill: var(--color4, #000)" d="M30.119 27.455h-0.852v0.848h0.852v-0.848z"></path>
<path fill="#000" style="fill: var(--color4, #000)" d="M2.86 28.303h-0.852v0.849h0.852v-0.849z"></path>
<path fill="#000" style="fill: var(--color4, #000)" d="M7.971 28.303h-0.852v0.849h0.852v-0.849z"></path>
<path fill="#000" style="fill: var(--color4, #000)" d="M10.526 28.303h-0.852v0.849h0.852v-0.849z"></path>
<path fill="#000" style="fill: var(--color4, #000)" d="M11.378 28.303h-0.852v0.849h0.852v-0.849z"></path>
<path fill="#000" style="fill: var(--color4, #000)" d="M12.23 28.303h-0.852v0.849h0.852v-0.849z"></path>
<path fill="#000" style="fill: var(--color4, #000)" d="M14.786 28.303h-0.852v0.849h0.852v-0.849z"></path>
<path fill="#000" style="fill: var(--color4, #000)" d="M16.489 28.303h-0.852v0.849h0.852v-0.849z"></path>
<path fill="#000" style="fill: var(--color4, #000)" d="M17.341 28.303h-0.852v0.849h0.852v-0.849z"></path>
<path fill="#000" style="fill: var(--color4, #000)" d="M18.193 28.303h-0.852v0.849h0.852v-0.849z"></path>
<path fill="#000" style="fill: var(--color4, #000)" d="M20.749 28.303h-0.852v0.849h0.852v-0.849z"></path>
<path fill="#000" style="fill: var(--color4, #000)" d="M21.601 28.303h-0.852v0.849h0.852v-0.849z"></path>
<path fill="#000" style="fill: var(--color4, #000)" d="M23.304 28.303h-0.852v0.849h0.852v-0.849z"></path>
<path fill="#000" style="fill: var(--color4, #000)" d="M25.008 28.303h-0.852v0.849h0.852v-0.849z"></path>
<path fill="#000" style="fill: var(--color4, #000)" d="M25.86 28.303h-0.852v0.849h0.852v-0.849z"></path>
<path fill="#000" style="fill: var(--color4, #000)" d="M2.86 29.151h-0.852v0.849h0.852v-0.849z"></path>
<path fill="#000" style="fill: var(--color4, #000)" d="M3.712 29.151h-0.852v0.849h0.852v-0.849z"></path>
<path fill="#000" style="fill: var(--color4, #000)" d="M4.564 29.151h-0.852v0.849h0.852v-0.849z"></path>
<path fill="#000" style="fill: var(--color4, #000)" d="M5.415 29.151h-0.852v0.849h0.852v-0.849z"></path>
<path fill="#000" style="fill: var(--color4, #000)" d="M6.267 29.151h-0.852v0.849h0.852v-0.849z"></path>
<path fill="#000" style="fill: var(--color4, #000)" d="M7.119 29.151h-0.852v0.849h0.852v-0.849z"></path>
<path fill="#000" style="fill: var(--color4, #000)" d="M7.971 29.151h-0.852v0.849h0.852v-0.849z"></path>
<path fill="#000" style="fill: var(--color4, #000)" d="M9.675 29.151h-0.852v0.849h0.852v-0.849z"></path>
<path fill="#000" style="fill: var(--color4, #000)" d="M12.23 29.151h-0.852v0.849h0.852v-0.849z"></path>
<path fill="#000" style="fill: var(--color4, #000)" d="M19.897 29.151h-0.852v0.849h0.852v-0.849z"></path>
<path fill="#000" style="fill: var(--color4, #000)" d="M23.304 29.151h-0.852v0.849h0.852v-0.849z"></path>
<path fill="#000" style="fill: var(--color4, #000)" d="M26.712 29.151h-0.852v0.849h0.852v-0.849z"></path>
<path fill="#000" style="fill: var(--color4, #000)" d="M30.119 29.151h-0.852v0.849h0.852v-0.849z"></path>
</symbol>
<symbol id="icon-whats-icon" viewBox="0 0 31 32">
<path fill="#fafafa" style="fill: var(--color2, #fafafa)" d="M0 31.384l2.163-7.901c-1.335-2.313-2.036-4.935-2.035-7.623 0.004-8.405 6.844-15.245 15.247-15.245 4.078 0.001 7.906 1.59 10.786 4.472 2.878 2.882 4.463 6.713 4.462 10.787-0.004 8.406-6.844 15.246-15.247 15.246-2.551-0.001-5.065-0.641-7.292-1.857l-8.083 2.12zM8.458 26.504c2.149 1.276 4.2 2.040 6.913 2.041 6.985 0 12.674-5.685 12.678-12.673 0.003-7.003-5.66-12.679-12.668-12.682-6.99 0-12.676 5.685-12.678 12.672-0.001 2.853 0.835 4.988 2.238 7.223l-1.281 4.677 4.797-1.258zM23.056 19.499c-0.095-0.159-0.349-0.254-0.731-0.445-0.381-0.191-2.254-1.113-2.604-1.24-0.349-0.127-0.603-0.191-0.858 0.191-0.254 0.381-0.985 1.24-1.206 1.494s-0.445 0.286-0.826 0.095-1.609-0.592-3.064-1.891c-1.132-1.010-1.897-2.258-2.119-2.64-0.222-0.381-0.023-0.587 0.167-0.777 0.172-0.171 0.381-0.445 0.572-0.668 0.194-0.221 0.256-0.38 0.385-0.635 0.127-0.254 0.064-0.477-0.032-0.668-0.096-0.19-0.858-2.065-1.174-2.828-0.31-0.742-0.624-0.642-0.858-0.654l-0.731-0.013c-0.254 0-0.667 0.095-1.015 0.477s-1.333 1.303-1.333 3.178c0 1.876 1.365 3.687 1.555 3.941 0.191 0.254 2.686 4.103 6.508 5.753 0.909 0.392 1.619 0.627 2.172 0.802 0.913 0.29 1.744 0.249 2.4 0.151 0.732-0.109 2.254-0.922 2.572-1.812 0.318-0.891 0.318-1.654 0.222-1.813z"></path>
</symbol>
</defs>
</svg>
