<svg width="25" height="26" viewBox="0 0 25 26" fill="none" xmlns="http://www.w3.org/2000/svg">
<path d="M0 25.4999L1.75729 19.0802C0.672915 17.201 0.103125 15.0708 0.104166 12.8864C0.107291 6.05728 5.66457 0.5 12.4927 0.5C15.8062 0.501042 18.9166 1.79166 21.2562 4.13333C23.5947 6.47499 24.8822 9.58748 24.8812 12.8979C24.8781 19.7281 19.3208 25.2854 12.4927 25.2854C10.4198 25.2843 8.37706 24.7645 6.56769 23.777L0 25.4999ZM6.87186 21.5343C8.61769 22.5708 10.2844 23.1916 12.4885 23.1927C18.1635 23.1927 22.7864 18.5739 22.7895 12.8958C22.7916 7.20623 18.1906 2.59375 12.4968 2.59166C6.81769 2.59166 2.19791 7.2104 2.19583 12.8875C2.19479 15.2052 2.87395 16.9406 4.01457 18.7562L2.97395 22.5562L6.87186 21.5343ZM18.7333 15.8427C18.6562 15.7135 18.45 15.6364 18.1395 15.4812C17.8302 15.326 16.3083 14.5771 16.0239 14.4739C15.7406 14.3708 15.5343 14.3187 15.327 14.6291C15.1208 14.9385 14.5271 15.6364 14.3468 15.8427C14.1666 16.0489 13.9854 16.075 13.676 15.9198C13.3666 15.7646 12.3687 15.4385 11.1864 14.3833C10.2666 13.5625 9.64477 12.5489 9.46456 12.2385C9.28435 11.9291 9.44581 11.7614 9.59998 11.6073C9.73956 11.4687 9.90935 11.2458 10.0646 11.0646C10.2219 10.8854 10.2729 10.7562 10.3771 10.5489C10.4802 10.3427 10.4291 10.1614 10.351 10.0062C10.2729 9.85206 9.65415 8.32811 9.39685 7.70832C9.14477 7.10519 8.88956 7.18644 8.69998 7.17707L8.10623 7.16665C7.89998 7.16665 7.56457 7.24373 7.28123 7.55415C6.9979 7.86457 6.1979 8.61248 6.1979 10.1364C6.1979 11.6604 7.30728 13.1323 7.46144 13.3385C7.61665 13.5448 9.64373 16.6718 12.7489 18.0125C13.4875 18.3312 14.0646 18.5218 14.5135 18.6645C15.2552 18.9 15.9302 18.8666 16.4635 18.7875C17.0583 18.6989 18.2948 18.0385 18.5531 17.3156C18.8114 16.5916 18.8114 15.9718 18.7333 15.8427Z" fill="#FAFAFA"/>
</svg>
