<svg width="64" height="15" fill="none" xmlns="http://www.w3.org/2000/svg"><path d="M10.525 8.945c0 1.213-.515 2.2-1.546 2.96-1.025.755-2.42 1.132-4.183 1.132-1.02 0-1.91-.088-2.671-.264A14.063 14.063 0 0 1 0 12.086V9.135h.347c.656.523 1.39.926 2.2 1.207.815.281 1.598.422 2.348.422.193 0 .447-.017.76-.05a3.08 3.08 0 0 0 .77-.165c.242-.1.44-.224.595-.372.16-.15.24-.37.24-.662 0-.27-.116-.501-.348-.694-.226-.199-.56-.35-1-.455-.463-.11-.954-.213-1.472-.306-.513-.1-.995-.223-1.447-.372-1.035-.337-1.782-.791-2.24-1.364C.3 5.744.074 5.028.074 4.174c0-1.147.513-2.081 1.538-2.803C2.642.643 3.966.279 5.582.279c.81 0 1.608.08 2.397.24.793.155 1.48.35 2.059.587v2.836h-.34c-.496-.397-1.105-.727-1.827-.992a6.19 6.19 0 0 0-2.199-.405c-.265 0-.53.02-.794.058-.259.033-.51.1-.752.198-.215.083-.4.21-.554.38a.814.814 0 0 0-.232.57c0 .326.124.577.372.754.249.17.717.327 1.406.47.452.094.885.185 1.298.274.42.088.869.209 1.348.363.943.309 1.637.73 2.083 1.266.452.529.678 1.218.678 2.067ZM23.87.503l-4.49 12.31h-3.555L11.335.504h3.333l2.976 8.648L20.621.503h3.249ZM36.529 12.11c-.551.215-1.282.43-2.191.645-.91.21-1.816.314-2.72.314-2.095 0-3.735-.568-4.92-1.703-1.185-1.14-1.778-2.714-1.778-4.721 0-1.913.598-3.454 1.795-4.622C27.911.85 29.578.263 31.717.263c.81 0 1.582.074 2.315.223.733.143 1.549.433 2.447.868V4.24h-.355c-.155-.116-.38-.279-.678-.488a8.04 8.04 0 0 0-.86-.546 5.653 5.653 0 0 0-1.124-.454 4.721 4.721 0 0 0-1.356-.19 4.48 4.48 0 0 0-1.53.248 3.551 3.551 0 0 0-1.232.76 3.5 3.5 0 0 0-.827 1.265c-.199.507-.298 1.094-.298 1.76 0 1.363.361 2.405 1.084 3.127.722.722 1.789 1.083 3.2 1.083a10.562 10.562 0 0 0 .801-.033V8.358H30.85V6.034h5.68l-.001 6.077Zm6.924.703h-.972v-8.04h.972v8.04Zm6.811-2.884c0 .94-.241 1.683-.724 2.228-.482.544-1.128.816-1.938.816-.816 0-1.465-.272-1.948-.816-.479-.545-.718-1.287-.718-2.227s.24-1.683.718-2.228c.483-.547 1.132-.821 1.948-.821.81 0 1.456.274 1.938.82.483.546.724 1.288.724 2.229Zm-1.003 0c0-.747-.147-1.301-.44-1.663-.292-.365-.698-.548-1.219-.548-.527 0-.937.183-1.23.548-.29.361-.434.916-.434 1.664 0 .723.147 1.273.44 1.648.293.372.7.558 1.224.558.517 0 .922-.184 1.215-.553.296-.372.444-.923.444-1.653Zm7.193 2.228c0 .978-.222 1.696-.666 2.155-.445.458-1.129.687-2.052.687a6.64 6.64 0 0 1-1.757-.248v-.992h.052c.159.062.41.138.754.227.345.093.69.14 1.034.14.33 0 .605-.04.822-.12.217-.079.385-.189.506-.33.12-.134.206-.296.258-.486a2.4 2.4 0 0 0 .078-.635v-.527a3.83 3.83 0 0 1-.842.527c-.265.113-.605.17-1.018.17-.69 0-1.237-.248-1.644-.744-.403-.5-.604-1.203-.604-2.108 0-.496.069-.923.206-1.282.141-.361.333-.673.574-.935a2.3 2.3 0 0 1 .816-.57c.32-.136.64-.205.956-.205.335 0 .614.034.838.103.227.065.466.167.718.305l.062-.248h.91l-.001 5.116Zm-.971-.93V8.08c-.259-.117-.5-.2-.724-.25a2.9 2.9 0 0 0-.661-.076c-.534 0-.954.179-1.26.537-.307.359-.46.879-.46 1.56 0 .649.113 1.14.34 1.474.227.334.605.5 1.132.5.283 0 .565-.052.847-.16.287-.11.549-.256.786-.44v.003Zm7.803-1.298c0 .94-.241 1.683-.723 2.228-.483.544-1.129.816-1.938.816-.817 0-1.466-.272-1.948-.816-.48-.545-.719-1.287-.719-2.227s.24-1.683.719-2.228c.482-.547 1.131-.821 1.948-.821.81 0 1.455.274 1.938.82.482.546.723 1.288.723 2.229Zm-1.002 0c0-.747-.147-1.301-.44-1.663-.293-.365-.7-.548-1.22-.548-.527 0-.937.183-1.23.548-.289.361-.433.916-.433 1.664 0 .723.146 1.273.439 1.648.293.372.702.558 1.225.558.517 0 .921-.184 1.214-.553.297-.372.445-.923.445-1.653Z" fill="#fff"/></svg>